<svg xmlns="http://www.w3.org/2000/svg" width="252.165" height="181.087" viewBox="0 0 252.165 181.087"><defs><style>.a,.c{fill:#0e65f2;}.a{opacity:0.3;}.b{fill:none;stroke:#3f3d56;stroke-miterlimit:10;}.d{fill:#e6f0fd;}.e{fill:#47465a;}.f{opacity:0.1;}.g{fill:#7a799c;}.h{fill:#9493b6;}.i{fill:#ff6584;}.j{fill:#fbbebe;}</style></defs><rect class="a" width="18.015" height="6.709" transform="translate(153.691 11.43)"/><rect class="a" width="18.015" height="6.709" transform="translate(183.634)"/><rect class="a" width="18.015" height="6.709" transform="translate(184.876 20.749)"/><rect class="a" width="18.015" height="6.709" transform="translate(127.227 28.452)"/><rect class="a" width="18.015" height="6.709" transform="translate(121.512 56.034)"/><rect class="a" width="18.015" height="6.709" transform="translate(148.721 55.413)"/><path class="b" d="M782.057,14.856,770.13,26.173l13.17,9.474" transform="translate(-598.424 -11.544)"/><line class="b" x1="17.456" y2="13.822" transform="translate(136.235 14.63)"/><path class="b" d="M585.4,178.57l5.715-20.868,21.494,20.252" transform="translate(-454.881 -122.541)"/><rect class="a" width="18.015" height="6.709" transform="translate(32.179 18.342)"/><rect class="a" width="18.015" height="6.709" transform="translate(62.122 6.912)"/><rect class="a" width="18.015" height="6.709" transform="translate(63.364 27.66)"/><rect class="a" width="18.015" height="6.709" transform="translate(5.715 35.363)"/><rect class="a" width="18.015" height="6.709" transform="translate(0 62.946)"/><rect class="a" width="18.015" height="6.709" transform="translate(27.209 62.324)"/><path class="b" d="M237.057,45.856,225.13,57.173l13.17,9.474" transform="translate(-174.936 -35.632)"/><line class="b" x1="17.456" y2="13.822" transform="translate(14.723 21.541)"/><path class="b" d="M40.4,209.57,46.116,188.7,67.61,208.954" transform="translate(-31.393 -146.629)"/><line class="b" x2="20.43" transform="translate(81.38 31.015)"/><rect class="c" width="21.181" height="6.689" transform="translate(92.639 27.581)"/><line class="b" x2="13.38" transform="translate(113.847 30.926)"/><line class="b" x1="12.4" y1="20.702" transform="translate(80.137 10.224)"/><ellipse class="d" cx="98.101" cy="21.85" rx="98.101" ry="21.85" transform="translate(55.962 137.388)"/><path class="e" d="M851.334,391.611l-9.566,47.929H839.7l-.228-.354-.66-1.026,8.284-44.774,1.258-.527Z" transform="translate(-651.79 -304.298)"/><path class="f" d="M848.35,397.21l-8.882,46.327-.66-1.026,8.284-44.774Z" transform="translate(-651.79 -308.649)"/><path class="e" d="M898.986,463.084l-2.459.793-.6.193-.789-1.775L881.6,400.55l1.407-.315,2.957-.663Z" transform="translate(-685.044 -310.484)"/><path class="f" d="M896.526,466.187l-.6.193-.789-1.775L881.6,402.86l1.407-.315Z" transform="translate(-685.044 -312.795)"/><path class="e" d="M414.388,391.611l-2.17,62.131-2.486.552-.176.039-.69-1.282,1.381-60.849,1.328-.189Z" transform="translate(-317.705 -304.298)"/><path class="f" d="M411.574,393.415,409.732,455.7l-.176.039-.69-1.282,1.381-60.849Z" transform="translate(-317.705 -305.7)"/><path class="e" d="M435.213,479.515l-2.572.444-.288.049-.789-1.676-12.525-81.165.361-.109,1.907-.581Z" transform="translate(-325.611 -308.079)"/><path class="f" d="M432.641,481.982l-.288.049-.789-1.676L419.039,399.19l.361-.109Z" transform="translate(-325.611 -310.103)"/><path class="g" d="M770.246,401.263l9.576,12.236a3.105,3.105,0,0,0,2.807,1.17l39.311-4.6a3.105,3.105,0,0,0,2.744-3.084V397.91Z" transform="translate(-606.206 -318.98)"/><path class="e" d="M880.387,377.9h2.663v3.843a.989.989,0,0,1-.989.989h-.684a.989.989,0,0,1-.989-.989V377.9Z" transform="translate(-684.098 -293.643)"/><path class="g" d="M453.539,436.207l9.576,12.236a3.105,3.105,0,0,0,2.807,1.17l39.311-4.6a3.105,3.105,0,0,0,2.744-3.084v-9.072Z" transform="translate(-360.111 -346.133)"/><path class="e" d="M563.68,412.842h2.663v3.843a.989.989,0,0,1-.989.989h-.684a.989.989,0,0,1-.989-.989Z" transform="translate(-438.003 -320.796)"/><path class="e" d="M424.78,371.255l116.932-13.621a1.72,1.72,0,0,0,.575-3.244l-20.917-10.52a24.21,24.21,0,0,0-13.333-2.456L404.151,352.008a1.988,1.988,0,0,0-1.217,3.366l12.1,12.412A11.744,11.744,0,0,0,424.78,371.255Z" transform="translate(-320.35 -274.984)"/><path class="e" d="M1071.333,403.909l-1.251-.691s-1.35.994-2.45,5.181,2.056.045,2.056.045l1.381-2.86Z" transform="translate(-837.107 -323.104)"/><path class="e" d="M847.943,538.352s-1.282,6.016-1.874,7.692c-.29.821-1.69,1.571-3.243,2.145a21.711,21.711,0,0,1-4.252,1.109c-1.677.2-23.176-3.156-33.63-5.424-7.042-1.528-7.953-3.28-7.8-4.26a1.422,1.422,0,0,1,.4-.769s10.355-7,14-10.355,10.848-.69,18.738.69S847.943,538.352,847.943,538.352Z" transform="translate(-627.097 -419.185)"/><path class="e" d="M1012.391,403.217s4.832,3.156-11.44,9.665c0,0-8.845,4.987-7.693,25.529a5.633,5.633,0,0,0,.819,2.609c1.679,2.761,5.277,9.752-.72,10.619v1.578s10.848-5.424,12.032-10.059,5.128-30.375,7.1-32.742S1015.745,404.3,1012.391,403.217Z" transform="translate(-779.415 -323.104)"/><path class="f" d="M842.827,592.616a21.712,21.712,0,0,1-4.253,1.109c-1.677.2-23.176-3.156-33.63-5.424-7.042-1.528-7.953-3.28-7.8-4.26,4.629,1.583,19.661,6.607,25.056,7.022,6.41.493,18.657,1.864,19.585.932C842.145,591.636,842.511,592.015,842.827,592.616Z" transform="translate(-627.097 -463.612)"/><path class="e" d="M749.457,642.307l9.369-42.8s1.677-4.536,5.523-4.339l3.55,1.775s-5.917-1.381-7.2,3.156-9.468,42.21-9.468,42.21Z" transform="translate(-590.052 -472.252)"/><path class="e" d="M815.808,584.06l3.747-26.134h1.677l-3.846,26.134Z" transform="translate(-633.917 -433.532)"/><path class="e" d="M998.942,650.889l-3.55-40.829s0-3.452,1.775-5.128,7.506-6.459,7.506-6.459,1.469-.346,2.652,3.007,9.369,36.884,9.369,36.884l-1.578.69L1004.957,600.4l-7,6.608a6.932,6.932,0,0,0-.69,4.734c.69,2.268,3.255,39.152,3.255,39.152Z" transform="translate(-781.153 -474.818)"/><path class="e" d="M927.717,579.158l8.876,2.564,1.973-1.874-5.128-.69Z" transform="translate(-720.875 -450.03)"/><path class="g" d="M608.3,284.277l1.439,21.588,31.46-3.057-1.252-21.1a2.122,2.122,0,0,0-2.3-1.989l-27.411,2.306A2.122,2.122,0,0,0,608.3,284.277Z" transform="translate(-480.36 -227.132)"/><path class="g" d="M623.311,344.784,591.95,348.2l-1.183.129-9.172-5.917v-1.282l31.164-2.807Z" transform="translate(-451.924 -262.895)"/><path class="f" d="M591.95,358.454l-1.183.129-9.172-5.917v-1.148Z" transform="translate(-451.924 -273.144)"/><path class="h" d="M583.364,248.155l1.085,19.231,27.614-2.564-.986-18.738Z" transform="translate(-453.299 -191.218)"/><path class="f" d="M657.233,362.42l3.353,2.268,10.158-.986-3.452-2.17Z" transform="translate(-510.698 -280.926)"/><path class="h" d="M595.749,344.191l4.241,3.156,27.121-2.564-4.832-3.156Z" transform="translate(-462.922 -265.459)"/><rect class="i" width="20.02" height="20.02" transform="translate(180.954 49.59)"/><rect class="f" width="20.02" height="20.02" transform="translate(180.954 49.59)"/><path class="j" d="M875.624,295.012s2.824,7.649,0,9.061,10.12,0,10.12,0l3.648-2.942s-8.237-2.353-7.06-7.766S875.624,295.012,875.624,295.012Z" transform="translate(-687.776 -236.157)"/><path class="f" d="M875.624,295.012s2.824,7.649,0,9.061,10.12,0,10.12,0l3.648-2.942s-8.237-2.353-7.06-7.766S875.624,295.012,875.624,295.012Z" transform="translate(-687.776 -236.157)"/><path class="j" d="M773.056,646.826s10.591,14.945,8.826,19.063-.824,6.707-4.354,8.119-4.472,4-1.412,3.883,7.06-.941,7.649-2,2-6.119,4-6.825,5.766-3.413,3.06-6.707-9.526-15.431-9-16.659S773.056,646.826,773.056,646.826Z" transform="translate(-608.389 -511.248)"/><path class="h" d="M770.571,519.512s-21.887,1.412-27.536,6.707,4.942,25.065,6.119,25.3,10.355-.706,10-3.295-6.59-13.179-6.59-13.179,8.119-2.942,12.591-3.648,9.414-4,9.414-4Z" transform="translate(-583.781 -413.47)"/><path class="j" d="M827.417,503.094s.353,13.062,3.648,13.532,0-10,0-10l-.118-4Z" transform="translate(-650.63 -400.346)"/><path class="c" d="M834.139,350.019s-6.119-1.765-7.3,2.942-1.53,20.946-1.53,20.946L823.2,386.851s3.883-1.177,4.707-.588l4.942-6.237Z" transform="translate(-647.349 -281.515)"/><path class="f" d="M834.139,350.019s-6.119-1.765-7.3,2.942-1.53,20.946-1.53,20.946L823.2,386.851s3.883-1.177,4.707-.588l4.942-6.237Z" transform="translate(-647.349 -281.515)"/><path class="j" d="M892.706,663.225s4.112,8.085,6.583,7.967,4.825-1.647,6,3.177-.235,3.53,1.177,6.354,1.647,7.766-1.059,8.943-5.178,1.294-5.3,0,2.354-1.294-.471-5.884-8.826-12.944-11.3-13.768S892.706,663.225,892.706,663.225Z" transform="translate(-697.556 -525.141)"/><path class="h" d="M842.778,497.873s8.472,14.121,2.942,18.239-22,12-22,12,8.826,6,9.3,8-4.236,7.413-5.884,7.531-6.472-5.413-11.65-6.825-8.355-11.532-2.706-15.3a63.116,63.116,0,0,0,10.944-10l-1.646-9.06Z" transform="translate(-636.925 -396.655)"/><path class="j" d="M857.956,255.365c0,5-5.126,9.141-10.13,9.141a9.061,9.061,0,1,1,0-18.122C852.83,246.384,857.956,250.36,857.956,255.365Z" transform="translate(-659.448 -201.238)"/><path class="c" d="M850.665,331.093s8.119-3.53,8.119-4,4.707,1.059,5.766,2,1.647.824,2.353,2.706-3.53,19.416-3.53,19.416,2.353,13.532,3.648,14.827-10.473,3.177-10.473,3.177-7.766,1.412-9.061,2-3.648,1.412-3.177,0,2.471-2.471-.941-4.236c0,0,1.177-5.766,0-8.355s-6.59-12-2.236-18.828,6.354-9.3,6.354-9.3A3.315,3.315,0,0,0,850.665,331.093Z" transform="translate(-659.993 -263.884)"/><path class="j" d="M832.213,489.428s-9.179,4.071-11.944,4.448-11.12,2.495-6.531,4.378,11.532-.941,11.532-.941l9.767-4.119Z" transform="translate(-638.952 -390.094)"/><path class="f" d="M898.738,342.973s3.389-1.639,4.331,4.126,4.236,24.005,0,26.712-14,7.06-14,7.06-5.766-3.883-3.06-5.3,9.179-5.413,10.12-6.825,1.893-17.174.245-19.763S898.738,342.973,898.738,342.973Z" transform="translate(-695.594 -276.125)"/><path class="c" d="M902.286,337.422s4.707-.235,5.648,5.531,4.236,24.005,0,26.712-14,7.06-14,7.06-5.766-3.883-3.059-5.3,9.178-5.413,10.12-6.825-.706-16.121-2.353-18.71S902.286,337.422,902.286,337.422Z" transform="translate(-699.375 -271.977)"/><path class="i" d="M833.188,218.216a4.875,4.875,0,0,0-3.721,1.989,16.8,16.8,0,0,0-.745,2c-.756,1.818-2.593,2.9-3.918,4.358a6.872,6.872,0,0,0-1.567,7.109,29.075,29.075,0,0,0,1.521,2.559c1.356,2.418,1.428,5.321,1.467,8.092l.076,5.449a7.832,7.832,0,0,1-.23,2.475,2.65,2.65,0,0,1-1.6,1.787,4.156,4.156,0,0,0,4.84-1.653,4.247,4.247,0,0,1-1.3,3.768,8.424,8.424,0,0,0,5.106-3.978,15.417,15.417,0,0,0,1.905-6.316,8.279,8.279,0,0,0-.2-3.484,10.91,10.91,0,0,0-1.141-2.192,16.923,16.923,0,0,1-2.461-5.85,7.508,7.508,0,0,1,1.364-6.036,5.452,5.452,0,0,1,4.306-1.975,4.794,4.794,0,0,1,4,2.447c.315.593.763,1.4,1.4,1.187a3.452,3.452,0,0,0,.345-.17c.711-.324,1.519.315,1.833,1.031.989,2.258-.833,4.723-1.022,7.18-.175,2.286,1.1,4.443,2.623,6.156a20.226,20.226,0,0,0,9.889,6.076,2.776,2.776,0,0,1-1.434-.891,18.834,18.834,0,0,0,4.628-.388,31.9,31.9,0,0,1-4.705-4.051,10.7,10.7,0,0,1-2.775-5.467c-.4-2.753.625-5.735-.547-8.259-1.072-2.307-3.731-3.6-4.7-5.947-.986-2.388-1.626-4.463-4.237-5.5A17.96,17.96,0,0,0,833.188,218.216Z" transform="translate(-647.042 -179.262)"/></svg>