<svg xmlns="http://www.w3.org/2000/svg" width="89.153" height="19.328" viewBox="0 0 89.153 19.328"><defs><style>.a{fill:#1b1d1c;}</style></defs><g transform="translate(0 0)"><path class="a" d="M2.326,48.865A2.331,2.331,0,0,1,0,46.539V35.308a2.326,2.326,0,0,1,4.651.018V46.557A2.339,2.339,0,0,1,2.326,48.865Z" transform="translate(0 -29.537)"/><path class="a" d="M35.513,48.82a2.333,2.333,0,0,1-1.785-.829l-4.687-5.607a2.315,2.315,0,0,1,0-2.975l4.687-5.625a2.317,2.317,0,1,1,3.57,2.957h0l-3.443,4.146L37.3,45.016a2.327,2.327,0,0,1-1.785,3.8Z" transform="translate(-23.362 -29.492)"/><path class="a" d="M97.751,48.783H87.926A2.331,2.331,0,0,1,85.6,46.457V35.226a2.326,2.326,0,1,1,4.651,0v8.906h5.192V35.226a2.326,2.326,0,1,1,4.651,0V46.457a2.359,2.359,0,0,1-2.344,2.326Z" transform="translate(-71.2 -29.455)"/><path class="a" d="M183.451,48.865h-9.825a2.317,2.317,0,0,1,0-4.633h7.5v-.126l-8.149-2.326a2.32,2.32,0,0,1-1.677-2.235V35.308A2.316,2.316,0,0,1,173.626,33h9.825a2.326,2.326,0,0,1,0,4.651h-7.5V37.8l8.149,2.326a2.32,2.32,0,0,1,1.677,2.235v4.2a2.316,2.316,0,0,1-2.326,2.308Z" transform="translate(-142.483 -29.537)"/><path class="a" d="M362.551,48.783a2.316,2.316,0,0,1-2.308-2.326V40.273l-1.082.937a2.346,2.346,0,0,1-3.029,0l-1.082-.937v6.184a2.326,2.326,0,1,1-4.651,0h0V35.226a2.327,2.327,0,0,1,3.84-1.767l3.407,2.921,3.389-2.921a2.336,2.336,0,0,1,3.281.252,2.31,2.31,0,0,1,.559,1.514V46.457a2.308,2.308,0,0,1-2.326,2.326Z" transform="translate(-291.453 -29.455)"/><path class="a" d="M270.539,48.865a2.331,2.331,0,0,1-2.326-2.326V44.574l-5.787-6.941h-.793v6.58h3.5a2.317,2.317,0,0,1,0,4.633h-5.823A2.316,2.316,0,0,1,257,46.521V35.308A2.312,2.312,0,0,1,259.308,33h4.219a2.333,2.333,0,0,1,1.785.829l7.013,8.419a2.331,2.331,0,0,1,.541,1.478v2.812a2.32,2.32,0,0,1-2.326,2.326Z" transform="translate(-213.82 -29.537)"/><path class="a" d="M449.657,48.865a2.331,2.331,0,0,1-2.326-2.326V44.574l-5.787-6.941h-.811v6.58h3.5a2.317,2.317,0,0,1,0,4.633h-5.8a2.331,2.331,0,0,1-2.326-2.326V35.308A2.316,2.316,0,0,1,438.426,33h4.219a2.361,2.361,0,0,1,1.785.829l7.013,8.419a2.331,2.331,0,0,1,.541,1.478v2.812a2.32,2.32,0,0,1-2.326,2.326Z" transform="translate(-362.83 -29.537)"/><path class="a" d="M244.967.267a1.113,1.113,0,0,0-.559-.288,1.111,1.111,0,0,0-.721.27c-.18.126-.541.451-.685.577s-.5.2-1.1.559S239,3.224,239,3.224h.595l-2.686,1.388h.27L236.8,4.9a.86.86,0,0,0,.631-.09V4.9s3.191-1.262,3.8-.937l-.379.108c.036,0,.631.036.631.036a.849.849,0,0,0,.4.613c.361.234.379.379.379.379s-.18.072-.18.18a1.667,1.667,0,0,1,1.028,0s-.018-.108-.27-.18a1.435,1.435,0,0,1-.631-.5.721.721,0,0,1-.108-.685c.09-.234.4-.361,1.028-.685.739-.379.919-.667,1.01-.9s.27-.667.343-.883a1.244,1.244,0,0,1,.361-.5,4.538,4.538,0,0,1,.613-.27C245.489.682,245.093.357,244.967.267Z" transform="translate(-196.77 0.026)"/></g></svg>