<svg xmlns="http://www.w3.org/2000/svg" width="115.742" height="25.092" viewBox="0 0 115.742 25.092"><defs><style>.a{fill:#fff;}</style></defs><g transform="translate(0 0.026)"><path class="a" d="M3.019,53.6A3.027,3.027,0,0,1,0,50.577V36a3.019,3.019,0,0,1,6.038.023V50.6A3.037,3.037,0,0,1,3.019,53.6Z" transform="translate(0 -28.53)"/><path class="a" d="M37.6,53.555a3.029,3.029,0,0,1-2.317-1.077L29.2,45.2a3.006,3.006,0,0,1,0-3.862l6.085-7.3a3.009,3.009,0,1,1,4.634,3.838h0l-4.47,5.383,4.47,5.36A3.021,3.021,0,0,1,37.6,53.555Z" transform="translate(-21.83 -28.488)"/><path class="a" d="M101.375,53.52H88.619A3.027,3.027,0,0,1,85.6,50.5V35.919a3.019,3.019,0,1,1,6.038,0V47.481h6.741V35.919a3.019,3.019,0,0,1,6.038,0V50.5a3.062,3.062,0,0,1-3.043,3.019Z" transform="translate(-66.905 -28.453)"/><path class="a" d="M187.075,53.6H174.319a3.009,3.009,0,0,1,0-6.015h9.736v-.164L173.477,44.4a3.012,3.012,0,0,1-2.177-2.9V36a3.007,3.007,0,0,1,3.019-3h12.756a3.019,3.019,0,0,1,0,6.038h-9.736v.187l10.579,3.019a3.012,3.012,0,0,1,2.177,2.9V50.6a3.007,3.007,0,0,1-3.019,3Z" transform="translate(-133.888 -28.53)"/><path class="a" d="M366.175,53.52a3.007,3.007,0,0,1-3-3.019V42.473l-1.4,1.217a3.045,3.045,0,0,1-3.932,0l-1.4-1.217V50.5a3.019,3.019,0,1,1-6.038,0h0V35.919a3.021,3.021,0,0,1,4.985-2.294l4.423,3.792,4.4-3.792a3.033,3.033,0,0,1,4.26.328,3,3,0,0,1,.726,1.966V50.5a3,3,0,0,1-3.019,3.019Z" transform="translate(-273.872 -28.453)"/><path class="a" d="M274.577,53.6a3.027,3.027,0,0,1-3.019-3.019V48.026l-7.513-9.011h-1.03v8.543h4.54a3.009,3.009,0,0,1,0,6.015H260a3.007,3.007,0,0,1-3-3.019V36a3,3,0,0,1,3-3h5.477a3.029,3.029,0,0,1,2.317,1.077l9.1,10.93a3.026,3.026,0,0,1,.7,1.919v3.651a3.012,3.012,0,0,1-3.019,3.019Z" transform="translate(-200.942 -28.53)"/><path class="a" d="M453.7,53.6a3.027,3.027,0,0,1-3.019-3.019V48.026l-7.513-9.011h-1.053v8.543h4.541a3.009,3.009,0,0,1,0,6.015h-7.536a3.027,3.027,0,0,1-3.019-3.019V36a3.007,3.007,0,0,1,3.019-3H444.6a3.065,3.065,0,0,1,2.317,1.077l9.1,10.93a3.026,3.026,0,0,1,.7,1.919v3.651A3.012,3.012,0,0,1,453.7,53.6Z" transform="translate(-340.977 -28.53)"/><path class="a" d="M247.4.355a1.445,1.445,0,0,0-.726-.374,1.442,1.442,0,0,0-.936.351c-.234.164-.7.585-.889.749s-.655.257-1.428.726-3.768,2.387-3.768,2.387h.772L236.94,6h.351l-.491.374a1.117,1.117,0,0,0,.819-.117V6.37s4.143-1.638,4.938-1.217l-.491.14c.047,0,.819.047.819.047a1.1,1.1,0,0,0,.515.8c.468.3.491.491.491.491s-.234.094-.234.234a2.165,2.165,0,0,1,1.334,0s-.023-.14-.351-.234a1.862,1.862,0,0,1-.819-.655.936.936,0,0,1-.14-.889c.117-.3.515-.468,1.334-.889.96-.491,1.194-.866,1.311-1.17s.351-.866.445-1.147a1.614,1.614,0,0,1,.468-.655,5.893,5.893,0,0,1,.8-.351C248.081.893,247.566.472,247.4.355Z" transform="translate(-184.831 0)"/></g></svg>