<svg xmlns="http://www.w3.org/2000/svg" width="89.145" height="20.138" viewBox="0 0 89.145 20.138"><defs><style>.a{fill:#e6007a;}</style></defs><g transform="translate(0 0)"><g transform="translate(0 0)"><path d="M100.58,108.7a5.206,5.206,0,0,0-4.269,2.145,7.77,7.77,0,0,0-1.7,4.977,4.624,4.624,0,0,0,1.072,3.156,3.6,3.6,0,0,0,2.853,1.214,5.178,5.178,0,0,0,4.087-2,7.9,7.9,0,0,0,1.214-1.983,8.308,8.308,0,0,0,.627-3.176,5.04,5.04,0,0,0-.91-3.116A3.5,3.5,0,0,0,100.58,108.7Zm.061,8.538a2.825,2.825,0,0,1-2.043.89,1.656,1.656,0,0,1-1.356-.607,2.633,2.633,0,0,1-.486-1.679,5.909,5.909,0,0,1,1.052-3.581,3.134,3.134,0,0,1,2.65-1.457c1.214,0,1.8.728,1.8,2.205A5.964,5.964,0,0,1,100.641,117.235Zm64.946-3.217a1.032,1.032,0,0,0-1.275.587c-.931,2.327-2.084,3.5-3.5,3.5-.728,0-1.093-.627-1.093-1.861a25.563,25.563,0,0,1,.607-4.046l.3-1.416H163.5a1.021,1.021,0,0,0,1.012-.83A1.039,1.039,0,0,0,163.5,108.7H161.1l.506-2.347a1.075,1.075,0,0,0-2.1-.445l-.607,2.792h-6.717a5.206,5.206,0,0,0-4.269,2.145,7.77,7.77,0,0,0-1.7,4.977,5.369,5.369,0,0,0,.182,1.437,2.428,2.428,0,0,1-1.76.85,1.065,1.065,0,0,1-.91-.364,2.058,2.058,0,0,1-.283-1.214,18.228,18.228,0,0,1,.506-3.581l1.76-8.133a1.071,1.071,0,0,0-1.052-1.295,1.083,1.083,0,0,0-1.052.85l-1.052,4.957a4.641,4.641,0,0,0-2.347-.627,5.541,5.541,0,0,0-4.37,2.023,7.6,7.6,0,0,0-1.74,5.1,5.832,5.832,0,0,0,.243,1.74,2.26,2.26,0,0,1-1.477.567,1.206,1.206,0,0,1-.951-.364,1.906,1.906,0,0,1-.3-1.214,13.575,13.575,0,0,1,.324-2.408,1.1,1.1,0,0,0-2.145-.506,9.636,9.636,0,0,1-1.477,3.2,2.906,2.906,0,0,1-2.226,1.315,1.354,1.354,0,0,1-1.153-.668,3.212,3.212,0,0,1-.425-1.74,5.624,5.624,0,0,1,1.052-3.541,3.3,3.3,0,0,1,2.752-1.4,4.277,4.277,0,0,1,1.619.324,1.052,1.052,0,0,0,.951-.061,1.037,1.037,0,0,0-.121-1.841,3.882,3.882,0,0,0-.83-.263,7.066,7.066,0,0,0-1.578-.223,5.587,5.587,0,0,0-4.33,2.023,6.831,6.831,0,0,0-1.376,2.489h0c-1.012,3.278-2.347,4.916-3.945,4.916a1.372,1.372,0,0,1-1.194-.526,2.113,2.113,0,0,1-.384-1.315,2.46,2.46,0,0,1,.02-.425,5.515,5.515,0,0,0,2.448-1.861,4.6,4.6,0,0,0,.931-2.752c0-1.679-.91-2.509-2.752-2.509a4.921,4.921,0,0,0-3.44,1.4l1.133-5.3a1.054,1.054,0,1,0-2.064-.425l-3.116,14.567a1.051,1.051,0,0,0,1.032,1.275h0a1.043,1.043,0,0,0,1.032-.83l.971-4.451a8.717,8.717,0,0,1,.688-1.72,5.2,5.2,0,0,1,1.416-1.619,3.2,3.2,0,0,1,2.124-.769.7.7,0,0,1,.789.809,2.416,2.416,0,0,1-1.012,1.78,4.423,4.423,0,0,1-2.165,1.052c-.061.647-.1,1.093-.1,1.376a5.15,5.15,0,0,0,.91,3.217,3.17,3.17,0,0,0,2.691,1.173,4.693,4.693,0,0,0,3.642-1.8c.142-.162.263-.324.4-.506a3.741,3.741,0,0,0,.627,1.072,3.3,3.3,0,0,0,2.691,1.214,4.354,4.354,0,0,0,3.642-2.084,2.887,2.887,0,0,0,3.136,2.084,4.127,4.127,0,0,0,2.59-.91,3.33,3.33,0,0,0,2.408.91,4.354,4.354,0,0,0,3.642-2.084,2.887,2.887,0,0,0,3.136,2.084,4.2,4.2,0,0,0,2.853-1.093,3.612,3.612,0,0,0,2.731,1.093,5.178,5.178,0,0,0,4.087-2,7.9,7.9,0,0,0,1.214-1.983,8.307,8.307,0,0,0,.627-3.176,5.93,5.93,0,0,0-.4-2.246h2.772l-.263,1.214a25.023,25.023,0,0,0-.668,4.249c0,2.63,1.072,3.945,3.2,3.945,2.367,0,4.188-1.6,5.483-4.815A1.082,1.082,0,0,0,165.587,114.018Zm-23.793-1.295a9.606,9.606,0,0,1-1.659,4.067,3.008,3.008,0,0,1-2.286,1.315,1.354,1.354,0,0,1-1.153-.668,3.212,3.212,0,0,1-.425-1.74,5.624,5.624,0,0,1,1.052-3.541,3.133,3.133,0,0,1,4.714-.587Zm11.694,2.549a9.207,9.207,0,0,1-1.214,1.963,2.825,2.825,0,0,1-2.043.89,1.656,1.656,0,0,1-1.356-.607,2.633,2.633,0,0,1-.486-1.679,5.909,5.909,0,0,1,1.052-3.581,3.159,3.159,0,0,1,2.65-1.457c1.214,0,1.8.728,1.8,2.205A6.629,6.629,0,0,1,153.488,115.272Zm-43.824-11.755a1.041,1.041,0,0,0-1.032.85l-3.116,14.567a1.056,1.056,0,0,0,2.064.445l3.136-14.567A1.071,1.071,0,0,0,109.664,103.517ZM87.348,100.3a7.655,7.655,0,0,0-7.648,7.648,8.013,8.013,0,0,0,.4,2.489,1.068,1.068,0,0,0,2.023-.688,5.387,5.387,0,0,1-.3-1.963,5.524,5.524,0,1,1,5.847,5.665s-1.072.061-1.6.142c-.263.04-.465.081-.607.1a.081.081,0,0,1-.1-.1l.182-.89.971-4.552a1.056,1.056,0,1,0-2.064-.445s-2.387,11.128-2.408,11.249a1.056,1.056,0,0,0,2.064.445c.02-.121.344-1.6.344-1.6a2.687,2.687,0,0,1,2.266-2.1c.243-.04,1.194-.1,1.194-.1a7.66,7.66,0,0,0-.567-15.3Z" transform="translate(-79.7 -100.3)"/></g></g><path class="a" d="M509.21,187.193a1.282,1.282,0,1,0-.526,2.509,1.264,1.264,0,0,0,1.517-.991A1.294,1.294,0,0,0,509.21,187.193Z" transform="translate(-421.078 -169.591)"/></svg>