<svg xmlns="http://www.w3.org/2000/svg" width="115.741" height="26.147" viewBox="0 0 115.741 26.147"><defs><style>.a{fill:#fff;}</style></defs><g transform="translate(-92.789 -27.427)"><g transform="translate(13.089 -72.873)"><g transform="translate(79.7 100.3)"><path class="a" d="M106.81,111.2a6.76,6.76,0,0,0-5.543,2.785,10.088,10.088,0,0,0-2.207,6.462,6,6,0,0,0,1.392,4.1,4.674,4.674,0,0,0,3.7,1.576,6.723,6.723,0,0,0,5.306-2.6,10.256,10.256,0,0,0,1.576-2.574,10.786,10.786,0,0,0,.814-4.124,6.544,6.544,0,0,0-1.182-4.045A4.547,4.547,0,0,0,106.81,111.2Zm.079,11.085a3.668,3.668,0,0,1-2.653,1.156,2.15,2.15,0,0,1-1.76-.788,3.418,3.418,0,0,1-.63-2.18,7.672,7.672,0,0,1,1.366-4.65,4.069,4.069,0,0,1,3.441-1.891c1.576,0,2.338.946,2.338,2.863A7.743,7.743,0,0,1,106.888,122.287ZM89.63,100.3a9.939,9.939,0,0,0-9.93,9.93,10.4,10.4,0,0,0,.525,3.231,1.387,1.387,0,0,0,2.627-.893,7,7,0,0,1-.394-2.548,7.173,7.173,0,1,1,7.592,7.355s-1.392.079-2.075.184c-.342.053-.6.105-.788.131a.105.105,0,0,1-.131-.131l.236-1.156,1.261-5.911a1.371,1.371,0,1,0-2.679-.578s-3.1,14.448-3.126,14.606a1.371,1.371,0,1,0,2.679.578c.026-.158.447-2.075.447-2.075a3.489,3.489,0,0,1,2.942-2.732c.315-.053,1.55-.131,1.55-.131A9.945,9.945,0,0,0,89.63,100.3Zm101.582,17.81a1.34,1.34,0,0,0-1.655.762c-1.208,3.021-2.706,4.545-4.545,4.545-.946,0-1.419-.814-1.419-2.417a33.188,33.188,0,0,1,.788-5.254l.394-1.839h3.73a1.326,1.326,0,0,0,1.313-1.077,1.35,1.35,0,0,0-1.313-1.629H185.38l.657-3.047a1.4,1.4,0,0,0-2.732-.578l-.788,3.625H173.8a6.76,6.76,0,0,0-5.543,2.785,10.088,10.088,0,0,0-2.207,6.462,6.972,6.972,0,0,0,.236,1.865,3.152,3.152,0,0,1-2.285,1.1,1.383,1.383,0,0,1-1.182-.473,2.672,2.672,0,0,1-.368-1.576,23.667,23.667,0,0,1,.657-4.65l2.285-10.56a1.391,1.391,0,0,0-1.366-1.681,1.406,1.406,0,0,0-1.366,1.1l-1.366,6.436a6.025,6.025,0,0,0-3.047-.814,7.194,7.194,0,0,0-5.674,2.627,9.868,9.868,0,0,0-2.259,6.62,7.573,7.573,0,0,0,.315,2.259,2.934,2.934,0,0,1-1.918.736,1.566,1.566,0,0,1-1.235-.473,2.474,2.474,0,0,1-.394-1.576,17.626,17.626,0,0,1,.42-3.126,1.432,1.432,0,0,0-2.785-.657,12.511,12.511,0,0,1-1.918,4.15,3.774,3.774,0,0,1-2.89,1.707,1.758,1.758,0,0,1-1.5-.867,4.171,4.171,0,0,1-.552-2.259,7.3,7.3,0,0,1,1.366-4.6,4.279,4.279,0,0,1,3.573-1.813,5.554,5.554,0,0,1,2.1.42,1.366,1.366,0,0,0,1.235-.079,1.346,1.346,0,0,0-.158-2.39,5.039,5.039,0,0,0-1.077-.341,9.174,9.174,0,0,0-2.049-.289,7.254,7.254,0,0,0-5.622,2.627,8.87,8.87,0,0,0-1.786,3.231c-1.313,4.256-3.047,6.383-5.122,6.383a1.782,1.782,0,0,1-1.55-.683,2.743,2.743,0,0,1-.5-1.707,3.2,3.2,0,0,1,.026-.552,7.16,7.16,0,0,0,3.179-2.417,5.977,5.977,0,0,0,1.208-3.573c0-2.18-1.182-3.257-3.573-3.257a6.389,6.389,0,0,0-4.466,1.813l1.471-6.882a1.368,1.368,0,1,0-2.679-.552L119.392,124.6a1.371,1.371,0,0,0,2.679.578l1.261-5.779a11.318,11.318,0,0,1,.893-2.233,6.746,6.746,0,0,1,1.839-2.1,4.152,4.152,0,0,1,2.758-1,.914.914,0,0,1,1.024,1.051,3.136,3.136,0,0,1-1.313,2.312,5.743,5.743,0,0,1-2.811,1.366c-.079.841-.131,1.419-.131,1.786a6.687,6.687,0,0,0,1.182,4.177,4.116,4.116,0,0,0,3.494,1.524A6.093,6.093,0,0,0,135,123.942c.184-.21.341-.42.525-.657a4.857,4.857,0,0,0,.814,1.392,4.284,4.284,0,0,0,3.494,1.576,5.653,5.653,0,0,0,4.728-2.706c.552,1.813,1.891,2.706,4.072,2.706a5.359,5.359,0,0,0,3.362-1.182,4.324,4.324,0,0,0,3.126,1.182,5.653,5.653,0,0,0,4.728-2.706c.552,1.813,1.891,2.706,4.072,2.706a5.452,5.452,0,0,0,3.7-1.419,4.689,4.689,0,0,0,3.546,1.419,6.723,6.723,0,0,0,5.306-2.6,10.256,10.256,0,0,0,1.576-2.574,10.786,10.786,0,0,0,.814-4.124,7.7,7.7,0,0,0-.525-2.916h3.6l-.341,1.576a32.489,32.489,0,0,0-.867,5.516c0,3.415,1.392,5.122,4.15,5.122,3.073,0,5.438-2.075,7.119-6.252A1.4,1.4,0,0,0,191.212,118.11Zm-30.892-1.681a12.473,12.473,0,0,1-2.154,5.28,3.905,3.905,0,0,1-2.968,1.707,1.759,1.759,0,0,1-1.5-.867,4.171,4.171,0,0,1-.552-2.259,7.3,7.3,0,0,1,1.366-4.6,4.067,4.067,0,0,1,6.121-.762Zm15.183,3.31a11.954,11.954,0,0,1-1.576,2.548,3.668,3.668,0,0,1-2.653,1.156,2.15,2.15,0,0,1-1.76-.788,3.418,3.418,0,0,1-.63-2.18,7.672,7.672,0,0,1,1.366-4.65,4.1,4.1,0,0,1,3.441-1.891c1.576,0,2.338.946,2.338,2.863A8.606,8.606,0,0,1,175.5,119.739Zm-56.9-15.262a1.352,1.352,0,0,0-1.34,1.1l-4.045,18.914a1.371,1.371,0,0,0,2.679.578l4.072-18.914A1.391,1.391,0,0,0,118.6,104.477Zm75.523,18.677a1.664,1.664,0,1,0-.683,3.257,1.641,1.641,0,0,0,1.97-1.287A1.68,1.68,0,0,0,194.127,123.154Z" transform="translate(-79.7 -100.3)"/></g></g></g></svg>