<svg xmlns="http://www.w3.org/2000/svg" width="23.673" height="23.673" viewBox="0 0 23.673 23.673"><defs><style>.a{fill:none;stroke:#231f20;stroke-miterlimit:10;}.b{fill:#0e65f2;}</style></defs><g transform="translate(0.5 0.5)"><g transform="translate(3.614 3.614)"><circle class="a" cx="7.723" cy="7.723" r="7.723"/></g><circle class="a" cx="11.336" cy="11.336" r="11.336" transform="translate(0 0)"/><path class="b" d="M754.926,508.037a2.06,2.06,0,0,1,0-4.1,1.593,1.593,0,0,1,1.381.708l.708-.649a2.388,2.388,0,0,0-1.545-.948V501h-1.263v2.065a3.028,3.028,0,0,0,0,5.843v2.11h1.263v-2.094a2.391,2.391,0,0,0,1.545-.948l-.708-.649A1.619,1.619,0,0,1,754.926,508.037Z" transform="translate(-743.549 -494.674)"/></g></svg>