<svg xmlns="http://www.w3.org/2000/svg" width="352.473" height="245.234" viewBox="0 0 352.473 245.234"><defs><style>.a{fill:#e6e6e6;}.b{fill:#2f2e41;}.c{fill:#3f3d56;}.d{fill:#fff;}.e{fill:#0e65f2;}.f{fill:#ffb8b8;}</style></defs><ellipse class="a" cx="70.228" cy="5.334" rx="70.228" ry="5.334" transform="translate(0 234.566)"/><path class="b" d="M324.272,249.825c12.222-5.2,27.444-1.9,42.311.381.138-2.768,1.815-6.137.059-8.069-2.134-2.346-1.938-4.812-.653-7.291,3.284-6.341-1.421-13.087-6.171-18.7a10.521,10.521,0,0,0-8.781-3.686l-8.8.629a10.538,10.538,0,0,0-9.358,7.532h0c-2.1,2.858-3.226,5.707-2.518,8.542-3.147,2.151-3.676,4.747-2.262,7.674a4.411,4.411,0,0,1-.055,5.381,24.843,24.843,0,0,0-3.694,7.337Z" transform="translate(-270.591 -195.412)"/><path class="b" d="M655.947,630.822H406.852a8.352,8.352,0,0,1-8.352-8.352h0q135.445-15.741,265.8,0h0A8.352,8.352,0,0,1,655.947,630.822Z" transform="translate(-311.826 -418.821)"/><path class="c" d="M664.3,411.74l-265.8-.491,30.805-51.833.147-.246V244.935a10.558,10.558,0,0,1,10.559-10.558h181.3a10.558,10.558,0,0,1,10.558,10.559v115.02Z" transform="translate(-311.826 -207.6)"/><path class="d" d="M487.052,250.957a3.443,3.443,0,0,0-3.439,3.439V358.554a3.443,3.443,0,0,0,3.439,3.439H670.311a3.443,3.443,0,0,0,3.439-3.439V254.4a3.443,3.443,0,0,0-3.439-3.439Z" transform="translate(-359.108 -216.811)"/><path class="b" d="M479.372,531.718a1.478,1.478,0,0,0-1.339.858l-9.492,20.635a1.474,1.474,0,0,0,1.339,2.09H669.493a1.474,1.474,0,0,0,1.318-2.133l-10.318-20.635a1.466,1.466,0,0,0-1.318-.815Z" transform="translate(-350.661 -372.779)"/><circle class="d" cx="2.211" cy="2.211" r="2.211" transform="translate(216.625 28.005)"/><path class="b" d="M646.882,593.619a1.476,1.476,0,0,0-1.423,1.091l-2.381,8.844a1.474,1.474,0,0,0,1.423,1.857h45.281a1.474,1.474,0,0,0,1.392-1.956l-3.061-8.844a1.475,1.475,0,0,0-1.393-.992Z" transform="translate(-447.666 -407.166)"/><path class="b" d="M466.874,337.135V339.1H264.306l.152-.245v-1.72Z" transform="translate(-146.827 -187.285)"/><circle class="e" cx="34.392" cy="34.392" r="34.392" transform="translate(280.005 0)"/><path class="d" d="M904.819,258.819h-28.5a1.967,1.967,0,0,1-1.965-1.965v-17.2a1.967,1.967,0,0,1,1.965-1.965h28.5a1.967,1.967,0,0,1,1.965,1.965v17.2a1.967,1.967,0,0,1-1.965,1.965Zm-28.5-19.161v17.2h28.5v-17.2Z" transform="translate(-576.175 -209.442)"/><path class="d" d="M908.625,220.008H890.938v-7.861c0-5.694,3.719-9.826,8.844-9.826s8.844,4.132,8.844,9.826ZM892.9,218.043H906.66v-5.9c0-4.628-2.828-7.861-6.878-7.861s-6.878,3.233-6.878,7.861Z" transform="translate(-585.385 -189.793)"/><circle class="d" cx="1.965" cy="1.965" r="1.965" transform="translate(312.431 36.357)"/><path class="a" d="M676.531,370.819H534.9a2.626,2.626,0,0,1-2.623-2.623V333.064a2.626,2.626,0,0,1,2.623-2.623H676.531a2.626,2.626,0,0,1,2.623,2.623V368.2A2.626,2.626,0,0,1,676.531,370.819ZM534.9,331.49a1.575,1.575,0,0,0-1.574,1.574V368.2a1.575,1.575,0,0,0,1.574,1.574H676.531A1.575,1.575,0,0,0,678.1,368.2V333.064a1.575,1.575,0,0,0-1.574-1.574Z" transform="translate(-386.143 -260.966)"/><circle class="a" cx="10.684" cy="10.684" r="10.684" transform="translate(160.081 77.633)"/><path class="a" d="M640.978,356.805a1.781,1.781,0,1,0,0,3.561h83.943a1.781,1.781,0,1,0,0-3.561Z" transform="translate(-445.538 -275.612)"/><path class="a" d="M640.978,380.842a1.781,1.781,0,1,0,0,3.561H677.1a1.781,1.781,0,0,0,0-3.561Z" transform="translate(-445.538 -288.964)"/><path class="f" d="M433.886,363.385,407.7,377.3l-.331-11.6a77.536,77.536,0,0,0,24.193-7.954l2.738-6.765a4.586,4.586,0,0,1,7.795-1.19h0a4.586,4.586,0,0,1-.4,6.253Z" transform="translate(-316.756 -270.787)"/><path class="b" d="M322.872,541.329h0a5.144,5.144,0,0,1,.653-4.162l5.751-8.826a10.051,10.051,0,0,1,13.039-3.44h0c-2.417,4.114-2.08,7.724.835,10.86a52.282,52.282,0,0,0-12.417,8.465,5.144,5.144,0,0,1-7.861-2.9Z" transform="translate(-269.713 -368.367)"/><path class="b" d="M409.4,488.978h0a9.869,9.869,0,0,1-8.388,4.791l-38.208.289-1.657-9.611,16.9-4.971L363.8,468.54l15.576-18.227,28.291,26.368A9.869,9.869,0,0,1,409.4,488.978Z" transform="translate(-291.075 -327.557)"/><path class="b" d="M330.148,521.57H321.2c-8.034-55.07-16.212-110.294,7.954-130.906l28.5,4.64L354.009,419.5,338.1,437.724Z" transform="translate(-264.386 -294.421)"/><path class="b" d="M346.1,693.458h0a5.144,5.144,0,0,1-4.162-.653l-9.716-1.306a10.051,10.051,0,0,1-3.441-13.039h0c4.114,2.417,7.724,2.08,10.86-.835,2.216,4.475,5.868,4.2,9.355,7.972a5.144,5.144,0,0,1-2.9,7.861Z" transform="translate(-272.471 -453.833)"/><path class="f" d="M378.462,279.322l-16.57-3.977c2.752-5.633,2.979-11.9,1.657-18.559l11.268-.331A86.532,86.532,0,0,0,378.462,279.322Z" transform="translate(-291.489 -219.865)"/><path class="e" d="M370.641,348.951c-12.063,8.22-20.586.281-27.09-11.967.9-7.495-.56-16.464-3.27-26.209a17.84,17.84,0,0,1,10.892-21.513h0l14.251,5.965c12.1,9.863,14.482,20.547,9.942,31.815Z" transform="translate(-279.115 -238.09)"/><path class="f" d="M294.155,309.56l-13.256,6.96,23.53,13.919,3.274,8.076a4.283,4.283,0,0,1-2.573,5.659h0a4.283,4.283,0,0,1-5.672-3.8l-.331-5.628-29.906-9.869a6.993,6.993,0,0,1-4.388-4.272h0a6.993,6.993,0,0,1,2.624-8.135l24.049-16.5Z" transform="translate(-237.341 -241.817)"/><path class="e" d="M338.779,306.512c-5.529-2.423-10.556.209-16.9,2.32l-.994-17.565c6.3-3.358,12.309-4.264,17.9-1.657Z" transform="translate(-268.708 -237.445)"/><circle class="f" cx="10.58" cy="10.58" r="10.58" transform="translate(66.104 24.131)"/><path class="b" d="M375.057,237.359c-10.475,1.026-18.456-.687-23.557-5.565v-3.928h22.668Z" transform="translate(-285.717 -203.983)"/></svg>