<svg xmlns="http://www.w3.org/2000/svg" width="332.207" height="230.074" viewBox="0 0 332.207 230.074"><defs><style>.a{fill:#0e65f2;}.b{fill:#3f3d56;}.c{fill:#ccc;}.d,.e{fill:#e6f0fd;}.e,.f{opacity:0.1;}.g{fill:#a0616a;}.h{fill:#2f2e41;}.i{fill:#ff6584;}</style></defs><path class="a" d="M707.734,480.968c0,20.821-12.378,28.091-27.647,28.091s-27.647-7.27-27.647-28.091,27.647-47.309,27.647-47.309S707.734,460.147,707.734,480.968Z" transform="translate(-470.207 -323.648)"/><path class="b" d="M654.343,412.45l11.784-21.558-11.74,18.824.127-7.835,8.121-15.6-8.088,13.523.229-14.092,8.7-12.417-8.661,10.2.143-25.84L654.1,390.4l-8.806-13.48,8.7,16.243-.824,15.738-.024-.418-10.193-14.242,10.162,15.718-.1,1.968-.018.03.008.161-2.09,21H653.7l.335-1.7,10.137-15.68L654.06,429.876Z" transform="translate(-445.187 -247.649)"/><path class="c" d="M902.248,166.372c0,39.774-23.645,53.662-52.813,53.662s-52.812-13.888-52.812-53.662S849.435,76,849.435,76,902.248,126.6,902.248,166.372Z" transform="translate(-570.041 -75.999)"/><path class="b" d="M854.31,137.95l.541-33.287,22.51-41.181L854.936,99.441l.243-14.967L870.693,54.68,855.243,80.513h0l.438-26.92,16.612-23.72L855.749,49.361,856.023,0l-1.717,65.345.141-2.7L837.557,36.8l16.619,31.028L852.6,97.888l-.047-.8L833.084,69.883,852.5,99.909l-.2,3.76-.035.057.016.309-3.993,76.276h5.334l.64-39.4,19.365-29.952Z" transform="translate(-576.84)"/><path class="d" d="M390.014,635.1c0,11.871-77.01,56.424-167.035,56.424s-163-23.058-163-34.929,71.188,2.239,161.213,2.239S390.014,623.231,390.014,635.1Z" transform="translate(-59.976 -461.453)"/><path class="e" d="M390.014,635.1c0,10.957-146.82,55.691-146.82,55.691s-13.282.734-20.214.734c-90.025,0-163-23.058-163-34.929s71.188,2.239,161.213,2.239S390.014,623.231,390.014,635.1Z" transform="translate(-59.976 -461.453)"/><path class="d" d="M390.014,632.688c0,11.871-77.01,42.99-167.035,42.99s-163-9.624-163-21.495,71.188-11.2,161.213-11.2S390.014,620.816,390.014,632.688Z" transform="translate(-59.976 -459.038)"/><ellipse class="f" cx="69.22" cy="5.354" rx="69.22" ry="5.354" transform="translate(95.608 192.046)"/><path class="g" d="M414.617,368.965s20.265.375,16.512,3.94-17.826,0-17.826,0Z" transform="translate(-304.625 -278.853)"/><path class="c" d="M269.34,227.872s8.182-1.461,11.027,5.144,8.687,25.442,8.687,25.442,15.635,10.35,18.479,10.01,7.706.354,6.814,3.456-.5,6.621-2.549,7.052-5.318-3.685-7.817-1.7-24.77-5.259-26.2-6.759-13.312-33.989-13.312-33.989S264.945,227.767,269.34,227.872Z" transform="translate(-201.57 -181.063)"/><path class="g" d="M251.613,605.607l.938,7.881-7.881,2.064-4.5-2.064v-6.943Z" transform="translate(-166.295 -419.331)"/><path class="g" d="M182.679,622.078l.938,7.881-7.881,2.064-4.5-2.064v-6.943Z" transform="translate(-118.564 -430.736)"/><path class="h" d="M264.327,396.955l3.565,12.947,5.254,26.269a25.87,25.87,0,0,1-1.5,14.073c-3,7.693-8.444,32.836-7.318,34.337s-12.759,2.627-12.572,1.126,2.064-22.141,2.064-22.141,2.627-18.2,3.94-20.452-6-7.881-6-7.881-1.876,21.578-4.691,23.455-2.439,30.96-3.753,31.335-10.883,1.876-12.009,0,0-33.212,0-33.212,6.38-23.83,5.066-27.207-.563-17.826-.563-17.826-4.879-11.071-2.252-16.887Z" transform="translate(-178.259 -296.805)"/><path class="g" d="M293.191,146.615s-7.881,9.757-7.506,14.073-12.384-7.881-12.384-7.881S282.5,140.423,282.5,137.8,293.191,146.615,293.191,146.615Z" transform="translate(-207.685 -118.517)"/><circle class="g" cx="12.384" cy="12.384" r="12.384" transform="translate(73.027 6.989)"/><path class="c" d="M233.439,240.408a22.743,22.743,0,0,0-1.158,6.457c.064,1.293,3.5,2.141,8.241,2.7,4.4.516,9.93.779,14.957.914,5.278.143,10,.143,12.266.143,6.755,0,1.313-4.316-1.313-6.38s-2.064-31.335-1.876-35.088-1.689-14.636-1.689-16.7S258.451,185,258.451,185s-1.026,2.948-5.154-.993a21.938,21.938,0,0,0-9.569-5.066c-4.128,1.5-11.071,18.013-11.446,20.828-.152,1.143-.026,7,.229,13.677.37,9.766,1.015,21.312,1.46,22.537C234.32,236.948,233.932,238.569,233.439,240.408Z" transform="translate(-179.237 -147.277)"/><path class="g" d="M229.137,338.413l1.313,4.691-5.066,5.254L223.7,341.04Z" transform="translate(-154.89 -234.322)"/><path class="h" d="M296.98,692.914s3.94,4.5,6.943,1.5,2.815-4.878,3.378-4.878,9.007,7.505,9.007,7.505,14.448,3.378,6.567,5.817-30.21.751-30.21,0-.563-10.7,1.5-10.7Z" transform="translate(-221.044 -500.821)"/><path class="h" d="M228.046,709.385s3.94,4.5,6.943,1.5,2.815-4.879,3.377-4.879,9.007,7.506,9.007,7.506,14.448,3.377,6.567,5.817-30.21.751-30.21,0-.563-10.7,1.5-10.7Z" transform="translate(-173.314 -512.226)"/><path class="h" d="M281.516,107.329c-.4.258-.921.52-1.322.263a59.878,59.878,0,0,1-3.323-11.5c-.253-1.383-.428-2.92.34-4.1a10.045,10.045,0,0,0,.961-1.352,9.149,9.149,0,0,0,.227-2.492c.234-1.743,1.882-2.959,3.539-3.549s3.457-.773,5.036-1.546a38.286,38.286,0,0,0,4.092-2.878c1.391-.925,3.172-1.557,4.721-.932,1.37.553,2.224,1.949,3.518,2.66a10.265,10.265,0,0,0,2.88.824,18.431,18.431,0,0,1,7.487,3.478,5.437,5.437,0,0,1,1.362,1.4c1.662,2.736-1.314,6.456,0,9.376l-2.838-2.239a9.883,9.883,0,0,0-2.535-1.611,3.34,3.34,0,0,0-2.907.131c-1.2.744-1.523,2.3-1.942,3.647s-1.344,2.841-2.755,2.807c-1.918-.047-2.589-2.724-4.31-3.571a3.322,3.322,0,0,0-3.491.617,7.157,7.157,0,0,0-1.951,3.152,8.6,8.6,0,0,1-.977,2.2c-.515.7-1.174.76-1.725,1.286C284.169,104.773,283.288,106.184,281.516,107.329Z" transform="translate(-210.008 -78.071)"/><path class="f" d="M234.1,267.974a87.443,87.443,0,0,0,7.083,9.153c4.4.516,9.93.779,14.957.914a11.85,11.85,0,0,0-3.308-3.047c-2.439-1.5-8.256-19.327-8.256-19.327s7.13-18.388,9.007-25.331-5.441-10.883-5.441-10.883c-3.378-2.815-9.194,3.753-9.194,3.753s-2.968,8.954-5.775,17.8c.37,9.766,1.015,21.312,1.46,22.537C234.984,264.514,234.6,266.135,234.1,267.974Z" transform="translate(-179.9 -174.843)"/><path class="c" d="M235.232,214.573s7.318,3.94,5.441,10.883-9.007,25.331-9.007,25.331,5.817,17.825,8.256,19.327,5.817,5.066,3.19,6.943-4.5,4.879-6.38,3.94-1.876-6.192-5.066-6.192-16.137-19.514-16.324-21.578,10.7-34.9,10.7-34.9S231.855,211.759,235.232,214.573Z" transform="translate(-167.552 -171.464)"/><path class="i" d="M534.744,373.81l-2.111-2.111a6.565,6.565,0,0,0-9.285,0L482.4,412.644,441.46,371.7a6.565,6.565,0,0,0-9.285,0l-2.111,2.111a6.565,6.565,0,0,0,0,9.285l40.944,40.944-40.944,40.944a6.565,6.565,0,0,0,0,9.285l2.111,2.111a6.565,6.565,0,0,0,9.285,0L482.4,435.435l40.944,40.944a6.565,6.565,0,0,0,9.285,0l2.111-2.111a6.565,6.565,0,0,0,0-9.285L493.8,424.039,534.744,383.1A6.565,6.565,0,0,0,534.744,373.81Z" transform="translate(-314.899 -279.415)"/><path class="f" d="M429.643,596.25l39.728-39.728-.382-.382L431.1,594.024a6.538,6.538,0,0,0-1.461,2.226Z" transform="translate(-315.939 -408.455)"/><path class="f" d="M430.538,375.141a6.565,6.565,0,0,1,9.285,0l40.944,40.944,40.944-40.944a6.565,6.565,0,0,1,9.285,0l2.111,2.111a6.565,6.565,0,0,1,1.461,7.059l1.216-1.216a6.565,6.565,0,0,0,0-9.285l-2.111-2.111a6.565,6.565,0,0,0-9.285,0l-40.944,40.944L442.5,371.7a6.565,6.565,0,0,0-9.285,0L431.1,373.81a6.539,6.539,0,0,0-1.461,2.226Z" transform="translate(-315.939 -279.415)"/><path class="f" d="M635.962,547.436l-3.06,3.06,40.944,40.944a6.565,6.565,0,0,1,1.461,7.059l1.216-1.216a6.565,6.565,0,0,0,0-9.285Z" transform="translate(-456.679 -402.429)"/><path class="a" d="M111.6,547.739c0,17.293-10.28,23.331-22.962,23.331s-22.962-6.038-22.962-23.331,22.962-39.292,22.962-39.292S111.6,530.446,111.6,547.739Z" transform="translate(-63.92 -375.432)"/><path class="b" d="M57.089,477.953l9.787-17.9-9.75,15.634.106-6.508,6.745-12.954-6.717,11.232.19-11.7,7.223-10.313-7.193,8.473.119-21.461-.715,27.194-7.314-11.2,7.225,13.49-.684,13.071-.02-.347-8.466-11.829,8.44,13.055-.086,1.635-.015.025.007.134-1.736,17.443h2.32l.278-1.409,8.419-13.023-8.4,11.735Z" transform="translate(-32.976 -299.433)"/></svg>