<svg id="undraw_Mailbox_re_dvds" xmlns="http://www.w3.org/2000/svg" width="268.769" height="230.074" viewBox="0 0 268.769 230.074">
  <path id="Path_303" data-name="Path 303" d="M390.737,617.75a17.414,17.414,0,0,0,6.248-15.012c-.687-5.607-4.944-10.761-10.466-11.952s-11.816,2.105-13.493,7.5c-.923-10.4-1.987-21.234-7.516-30.09a31.867,31.867,0,0,0-23.075-14.783,28.592,28.592,0,0,0-25.152,10.268c-5.861,7.417-7.3,18.2-3.191,26.716,3.024,6.273,8.595,10.942,14.432,14.74a93.142,93.142,0,0,0,63.7,13.936" transform="translate(-311.75 -390.077)" fill="#e6e6e6"/>
  <path id="Path_304" data-name="Path 304" d="M341.77,559.93a153.689,153.689,0,0,1,45.158,61.062c.431,1.055-1.283,1.515-1.709.471a152.107,152.107,0,0,0-44.7-60.28C339.632,560.462,340.892,559.215,341.77,559.93Z" transform="translate(-326.945 -393.528)" fill="#fff"/>
  <path id="Path_305" data-name="Path 305" d="M480.286,617.75a17.414,17.414,0,0,1-6.248-15.012c.687-5.607,4.944-10.761,10.466-11.952s11.816,2.105,13.493,7.5c.923-10.4,1.987-21.234,7.516-30.09a31.867,31.867,0,0,1,23.075-14.783A28.592,28.592,0,0,1,553.74,563.68c5.861,7.417,7.3,18.2,3.191,26.716-3.024,6.273-8.595,10.942-14.432,14.74a93.142,93.142,0,0,1-63.7,13.936" transform="translate(-398.32 -390.077)" fill="#e6e6e6"/>
  <path id="Path_306" data-name="Path 306" d="M573.4,559.93a153.69,153.69,0,0,0-45.158,61.062c-.431,1.056,1.283,1.515,1.709.471a151.978,151.978,0,0,1,44.7-60.28C575.542,560.462,574.282,559.215,573.4,559.93Z" transform="translate(-427.277 -393.528)" fill="#fff"/>
  <circle id="Ellipse_78" data-name="Ellipse 78" cx="14.452" cy="14.452" r="14.452" transform="translate(80.317 74.594)" fill="#f2f2f2"/>
  <path id="Path_307" data-name="Path 307" d="M374.918,287.388h99.574v5.448H387.629a38.89,38.89,0,0,0-38.891,38.891v61.893h-10.9a1.816,1.816,0,0,1-1.816-1.816V326.278a38.89,38.89,0,0,1,38.891-38.89Z" transform="translate(-324.709 -248.162)" fill="#e6f0fd"/>
  <path id="Path_308" data-name="Path 308" d="M460.527,597.5V514.75H484.77V597.5a2.1,2.1,0,0,1-2.1,2.1H462.625A2.1,2.1,0,0,1,460.527,597.5Z" transform="translate(-391.166 -369.526)" fill="#3f3d56"/>
  <path id="Path_309" data-name="Path 309" d="M325.027,387.944v-67.29a40.45,40.45,0,0,1,40.4-40.4H468.153V390.275h-140.8a2.334,2.334,0,0,1-2.331-2.331ZM467.221,281.182H365.431a39.517,39.517,0,0,0-39.472,39.472v67.29a1.4,1.4,0,0,0,1.4,1.4H467.221Z" transform="translate(-318.837 -244.352)" fill="#3f3d56"/>
  <path id="Path_310" data-name="Path 310" d="M463.783,299.755a8.4,8.4,0,0,1-8.392-8.392V231.223a1.4,1.4,0,0,0-1.4-1.4H421.358a2.334,2.334,0,0,1-2.331-2.331V205.581a2.334,2.334,0,0,1,2.331-2.331h48.486a2.334,2.334,0,0,1,2.331,2.331v85.783a8.4,8.4,0,0,1-8.392,8.392Z" transform="translate(-369.014 -203.25)" fill="#0e65f2"/>
  <path id="Path_311" data-name="Path 311" d="M609.6,278.25h0a26.518,26.518,0,0,1,26.574,26.463v76.6h52.215a7.909,7.909,0,0,1,7.926,7.892H583.027v-84.5A26.518,26.518,0,0,1,609.6,278.25Z" transform="translate(-456.555 -243.284)" fill="#3f3d56"/>
  <path id="Path_312" data-name="Path 312" d="M626.294,303.39l5.5,22.731,107.639-26.057-5.5-22.73a1.7,1.7,0,0,0-1.1-1.21,1.676,1.676,0,0,0-.622-.094l-62.22-32.216a1.717,1.717,0,0,0-2.171.522l-29.987,41.816-11.3,15.768a.24.24,0,0,0-.042.2A1.7,1.7,0,0,0,626.294,303.39Z" transform="translate(-479.625 -224.802)" fill="#fff"/>
  <path id="Path_313" data-name="Path 313" d="M626.76,302.114a.228.228,0,0,0,.095.147.261.261,0,0,0,.2.04.25.25,0,0,0,.139-.1l.039-.054.589-.823,10.69-14.9,29.978-41.806a1.221,1.221,0,0,1,1.549-.371l61.738,31.966.554.288a.6.6,0,0,0,.069.024.755.755,0,0,1,.127-.012.24.24,0,0,0,.135-.114.244.244,0,0,0-.1-.33l-.076-.041-62.22-32.216a1.716,1.716,0,0,0-2.171.522l-29.987,41.816-11.3,15.768A.24.24,0,0,0,626.76,302.114Z" transform="translate(-479.896 -224.802)" fill="#3f3d56"/>
  <path id="Path_314" data-name="Path 314" d="M693.993,294.09l2.4.266,17.782,1.97,11.788,1.305.7.077,14.71-11.49.564-.44,3.474-2.713,12.361-9.654.074-.678,4.4-39.681a2.076,2.076,0,0,0-1.832-2.29l-58.675-6.5a2.077,2.077,0,0,0-2.29,1.832l-3.1,27.99-1.72,15.518-1.538,13.883-.713,6.447-.208,1.868a2.078,2.078,0,0,0,1.834,2.289Z" transform="translate(-514.802 -214.46)" fill="#e6e6e6"/>
  <path id="Path_315" data-name="Path 315" d="M727.585,292.484,753,295.3l9.014,1a3.049,3.049,0,0,0,.671-6.061l-11.211-1.242-23.217-2.574a3.05,3.05,0,1,0-.673,6.064Z" transform="translate(-532.27 -247.635)" fill="#fff"/>
  <path id="Path_316" data-name="Path 316" d="M724.708,316.636c.066.012.131.023.2.03l29.5,3.269,4.926.547a3.05,3.05,0,0,0,.671-6.063l-7.123-.788-23.371-2.59-3.933-.436a3.049,3.049,0,0,0-.872,6.031Z" transform="translate(-530.841 -260.545)" fill="#fff"/>
  <path id="Path_317" data-name="Path 317" d="M719.924,339.653a3.048,3.048,0,0,0,2.275,1.457l12.093,1.339,21.538,2.386h0l.689.077L760,342.2a3.016,3.016,0,0,0,0-.62,3.056,3.056,0,0,0-2.7-2.715l-2.992-.332-11.868-1.313-8.54-.947-11.031-1.223a3.049,3.049,0,0,0-2.946,4.606Z" transform="translate(-529.395 -273.592)" fill="#fff"/>
  <path id="Path_318" data-name="Path 318" d="M753.753,263.008l6.324.7,2.793.31,4.219.467a3.05,3.05,0,1,0,.671-6.063l-13.333-1.476a3.049,3.049,0,1,0-.674,6.061Z" transform="translate(-546.239 -231.903)" fill="#fff"/>
  <path id="Path_319" data-name="Path 319" d="M645.877,287.347l7.71,31.849,12.868,2.447,11.9,2.266,12.771,2.43,4.081.777a1.713,1.713,0,0,0,1.37-.332l3.274-2.557,2.073-1.619,14.71-11.49-9.353-38.636a2.053,2.053,0,0,0-.58-1.007,2.074,2.074,0,0,0-1.923-.521L647.4,284.844A2.075,2.075,0,0,0,645.877,287.347Z" transform="translate(-490.073 -239.359)" fill="#0e65f2"/>
  <path id="Path_320" data-name="Path 320" d="M683.766,346.883a3.052,3.052,0,0,0,3.681,2.246l33.667-8.15a3.054,3.054,0,0,0,2.246-3.681.968.968,0,0,0-.033-.115,3.048,3.048,0,0,0-3.648-2.131l-33.667,8.15A3.052,3.052,0,0,0,683.766,346.883Z" transform="translate(-510.283 -273.559)" fill="#fff"/>
  <path id="Path_321" data-name="Path 321" d="M690.082,368.464l11.9,2.266,25.215-6.1a3.049,3.049,0,1,0-1.435-5.927l-33.667,8.15a3.027,3.027,0,0,0-1.747,1.171A3.065,3.065,0,0,0,690.082,368.464Z" transform="translate(-513.7 -286.181)" fill="#fff"/>
  <path id="Path_322" data-name="Path 322" d="M743.008,387.4l4.081.777a1.712,1.712,0,0,0,1.37-.332l3.274-2.557Z" transform="translate(-541.952 -300.42)" fill="#fff"/>
  <path id="Path_323" data-name="Path 323" d="M698.316,315.97A3.052,3.052,0,0,0,702,318.216l13.04-3.157a3.054,3.054,0,0,0,2.246-3.681,3.015,3.015,0,0,0-.562-1.159,3.052,3.052,0,0,0-3.119-1.087l-13.04,3.157A3.05,3.05,0,0,0,698.316,315.97Z" transform="translate(-518.049 -259.724)" fill="#fff"/>
  <path id="Path_324" data-name="Path 324" d="M667.91,346.451l12.773,2.431,4.08.777a1.72,1.72,0,0,0,1.37-.332l3.276-2.558-1.15.278-2.427,1.893a1.229,1.229,0,0,1-.979.237l-3.021-.575-12.773-2.431Zm38.154-13.305.124.514.567-.44ZM667.91,346.451l12.773,2.431,4.08.777a1.72,1.72,0,0,0,1.37-.332l3.276-2.558-1.15.278-2.427,1.893a1.229,1.229,0,0,1-.979.237l-3.021-.575-12.773-2.431Zm0,0,12.773,2.431,4.08.777a1.72,1.72,0,0,0,1.37-.332l3.276-2.558-1.15.278-2.427,1.893a1.229,1.229,0,0,1-.979.237l-3.021-.575-12.773-2.431Zm-41.615-5.961,14.413,59.54a1.709,1.709,0,0,0,2.062,1.258l104.319-25.254a1.709,1.709,0,0,0,1.258-2.062l-14.413-59.54a1.7,1.7,0,0,0-1.1-1.21,1.675,1.675,0,0,0-.622-.094,1.611,1.611,0,0,0-.706.186,1.482,1.482,0,0,0-.283.176l-8.561,6.685-12.434,9.713-4.165,3.254v0h0l-15.276,11.925-2.525,1.976-2.427,1.893a1.229,1.229,0,0,1-.979.237l-3.021-.575-12.773-2.431-12.785-2.432-28-5.329a1.674,1.674,0,0,0-.721.016,1.711,1.711,0,0,0-.834.483,1.923,1.923,0,0,0-.23.3A1.7,1.7,0,0,0,626.294,340.489Zm41.615,5.961,12.773,2.431,4.08.777a1.72,1.72,0,0,0,1.37-.332l3.276-2.558-1.15.278-2.427,1.893a1.229,1.229,0,0,1-.979.237l-3.021-.575-12.773-2.431Zm0,0,12.773,2.431,4.08.777a1.72,1.72,0,0,0,1.37-.332l3.276-2.558-1.15.278-2.427,1.893a1.229,1.229,0,0,1-.979.237l-3.021-.575-12.773-2.431Zm0,0,12.773,2.431,4.08.777a1.72,1.72,0,0,0,1.37-.332l3.276-2.558-1.15.278-2.427,1.893a1.229,1.229,0,0,1-.979.237l-3.021-.575-12.773-2.431Z" transform="translate(-479.625 -261.901)" fill="#fff"/>
  <path id="Path_325" data-name="Path 325" d="M667.91,346.451l12.773,2.431,4.08.777a1.72,1.72,0,0,0,1.37-.332l3.276-2.558-1.15.278-2.427,1.893a1.229,1.229,0,0,1-.979.237l-3.021-.575-12.773-2.431Zm38.154-13.305.124.514.567-.44ZM667.91,346.451l12.773,2.431,4.08.777a1.72,1.72,0,0,0,1.37-.332l3.276-2.558-1.15.278-2.427,1.893a1.229,1.229,0,0,1-.979.237l-3.021-.575-12.773-2.431Zm0,0,12.773,2.431,4.08.777a1.72,1.72,0,0,0,1.37-.332l3.276-2.558-1.15.278-2.427,1.893a1.229,1.229,0,0,1-.979.237l-3.021-.575-12.773-2.431Zm-40.946-7.2.063.048c.011-.017.029-.033.043-.051a1.232,1.232,0,0,1,1.112-.358l27.826,5.293,11.9,2.268,12.773,2.431,4.08.777a1.72,1.72,0,0,0,1.37-.332l3.276-2.558-1.15.278-2.427,1.893a1.229,1.229,0,0,1-.979.237l-3.021-.575-12.773-2.431-12.784-2.432-28-5.329a1.674,1.674,0,0,0-.721.016Zm-.669,1.239,14.413,59.54a1.709,1.709,0,0,0,2.062,1.258l104.319-25.254a1.709,1.709,0,0,0,1.258-2.062l-14.413-59.54a1.7,1.7,0,0,0-1.1-1.21,1.675,1.675,0,0,0-.622-.094,1.611,1.611,0,0,0-.706.186,1.482,1.482,0,0,0-.283.176l-8.561,6.685-12.434,9.713-4.165,3.254v0h0l-15.276,11.925-2.525,1.976-2.427,1.893a1.229,1.229,0,0,1-.979.237l-3.021-.575-12.773-2.431-12.785-2.432-28-5.329a1.674,1.674,0,0,0-.721.016,1.711,1.711,0,0,0-.834.483,1.923,1.923,0,0,0-.23.3A1.7,1.7,0,0,0,626.294,340.489Zm.475-.115a1.211,1.211,0,0,1,.215-1.021.158.158,0,0,1,.042-.055c.011-.017.029-.033.043-.051a1.232,1.232,0,0,1,1.112-.358l27.826,5.293,11.9,2.268,12.773,2.431,4.08.777a1.72,1.72,0,0,0,1.37-.332l3.276-2.558,2.072-1.619,14.707-11.491.567-.44,3.472-2.712,12.363-9.655,8.938-6.98a1.213,1.213,0,0,1,.46-.222.928.928,0,0,1,.142-.023.748.748,0,0,1,.127-.012,1.248,1.248,0,0,1,.42.069,1.224,1.224,0,0,1,.786.864l14.413,59.54a1.221,1.221,0,0,1-.9,1.476L642.655,400.815a1.221,1.221,0,0,1-1.472-.9Zm41.14,6.076,12.773,2.431,4.08.777a1.72,1.72,0,0,0,1.37-.332l3.276-2.558-1.15.278-2.427,1.893a1.229,1.229,0,0,1-.979.237l-3.021-.575-12.773-2.431Zm0,0,12.773,2.431,4.08.777a1.72,1.72,0,0,0,1.37-.332l3.276-2.558-1.15.278-2.427,1.893a1.229,1.229,0,0,1-.979.237l-3.021-.575-12.773-2.431Zm0,0,12.773,2.431,4.08.777a1.72,1.72,0,0,0,1.37-.332l3.276-2.558-1.15.278-2.427,1.893a1.229,1.229,0,0,1-.979.237l-3.021-.575-12.773-2.431Z" transform="translate(-479.625 -261.901)" fill="#3f3d56"/>
  <path id="Path_326" data-name="Path 326" d="M827.007,413.964a3.789,3.789,0,0,1,2.788-4.569l13.167-3.187a3.785,3.785,0,1,1,1.781,7.358l-13.166,3.187A3.789,3.789,0,0,1,827.007,413.964Z" transform="translate(-586.733 -311.529)" fill="#0e65f2"/>
  <circle id="Ellipse_79" data-name="Ellipse 79" cx="3.263" cy="3.263" r="3.263" transform="translate(91.506 84.85)" fill="#fff"/>
</svg>
