<svg xmlns="http://www.w3.org/2000/svg" width="203.334" height="174.333" viewBox="0 0 203.334 174.333"><defs><style>.a{fill:#d0cde1;}.b{fill:#575a89;}.c{fill:#e6f0fd;}.d{fill:#fff;opacity:0.2;}.e{fill:#fbbebe;}.f{fill:#2f2e41;}.g{fill:#ccc;}.h{fill:#a0616a;}.i{fill:#0e65f2;}</style></defs><g transform="translate(0 0)"><path class="a" d="M354.054,496.257l-.382-.248a12.109,12.109,0,0,0-1.992-15.536c-.184-.168-.374-.331-.564-.495a9.191,9.191,0,0,1-1.5-1.507,2.965,2.965,0,0,1-.483-2.894l.413.191a2.517,2.517,0,0,0,.438,2.435,8.723,8.723,0,0,0,1.43,1.43c.194.166.387.332.575.5a12.564,12.564,0,0,1,2.067,16.12Z" transform="translate(-304.357 -382.594)"/><path class="a" d="M994.454,735.9l-.381-.248a12.109,12.109,0,0,0-1.992-15.536c-.185-.169-.375-.332-.565-.5a9.2,9.2,0,0,1-1.5-1.507,2.965,2.965,0,0,1-.483-2.894l.413.191a2.517,2.517,0,0,0,.438,2.435,8.717,8.717,0,0,0,1.429,1.429c.194.167.388.333.576.5A12.564,12.564,0,0,1,994.454,735.9Z" transform="translate(-799.126 -567.741)"/><path class="b" d="M516.5,699.967a23.241,23.241,0,0,0-27.036-13.146c-.461.118-.93.253-1.383.384a17.333,17.333,0,0,1-3.916.809,5.443,5.443,0,0,1-4.924-2.153l.386-.24a4.99,4.99,0,0,0,4.515,1.939,17.006,17.006,0,0,0,3.813-.792c.456-.132.928-.268,1.4-.388a23.7,23.7,0,0,1,27.565,13.4Z" transform="translate(-405.039 -544.873)"/><path class="b" d="M565.621,257.223l-.447-.083a23.241,23.241,0,0,0-14.954-26.079c-.448-.162-.911-.314-1.359-.46a17.339,17.339,0,0,1-3.693-1.535,5.438,5.438,0,0,1-2.859-4.55l.454.019a4.99,4.99,0,0,0,2.642,4.143,17.008,17.008,0,0,0,3.6,1.491c.451.148.918.3,1.372.465A23.7,23.7,0,0,1,565.621,257.223Z" transform="translate(-453.759 -188.626)"/><path class="c" d="M352.413,418.558c-1.918,3.538-5.554,5.128-8.521,3.91-.042-.017-.085-.035-.126-.053l-.047.164a.126.126,0,0,1-.006.018.635.635,0,0,1-.972.349l-.761-.5a.768.768,0,0,1-.195-1.094l.011-.014.128-.163.028-.037c-2.24-2.33-2.631-6.487-.758-9.943,2.126-3.921,6.36-5.451,9.459-3.418S354.539,414.637,352.413,418.558Z" transform="translate(-297.459 -329.518)"/><ellipse class="d" cx="1.942" cy="0.703" rx="1.942" ry="0.703" transform="translate(45.537 79.922) rotate(-30.313)"/><path class="b" d="M349.819,471.153a.121.121,0,0,1-.006.018l-1.917-1.258.128-.163,1.969,1.292c-.042-.017-.085-.035-.126-.053Z" transform="translate(-303.559 -378.092)"/><ellipse class="c" cx="101.667" cy="6.381" rx="101.667" ry="6.381" transform="translate(0 161.571)"/><path class="e" d="M733.2,682.886l.25,4.751,5.251-.5-.5-4.751Z" transform="translate(-566.463 -527.206)"/><path class="e" d="M644.126,658.694l.25,4.751,5.251-.5-.5-4.751Z" transform="translate(-497.646 -508.515)"/><path class="f" d="M816.268,467.02l-19.005,3.251-1.25,34.51-5,22.006,8,3.5,7.752-21.756,2.751-19.255,2,19.255.25,24.257,12.253-.75-2.93-47.5A44.191,44.191,0,0,0,816.268,467.02Z" transform="translate(-645.907 -375.983)"/><path class="f" d="M880.085,759.657s-1.751-2-1.751-1.25-1,8-1,8,6.752,2,6.752,3.251,9.753,3.251,9.5.75-8.753-12-8.753-12S881.335,757.906,880.085,759.657Z" transform="translate(-712.599 -600.976)"/><path class="f" d="M782.235,733.429s-.533-2.6-.9-1.952-4.824,6.462-4.824,6.462,4.881,5.076,4.263,6.163,6.872,7.646,7.89,5.349-1.677-14.761-1.677-14.761S784.187,732.525,782.235,733.429Z" transform="translate(-634.701 -580.219)"/><path class="f" d="M647.077,230.028l13.845,1.324,4.615-12.576-13.254-3.193Z" transform="translate(-499.926 -166.558)"/><circle class="e" cx="7.002" cy="7.002" r="7.002" transform="translate(151.481 46.9)"/><path class="e" d="M817.158,322.416s0,4.751-3.751,6.752,9,4.251,9,4.251l1.25-4.251s-3.751-1.75-.5-5.752Z" transform="translate(-662.676 -264.263)"/><path class="g" d="M800.868,344.909s-4.58,2.837-8.417.293l-1.586-.293-4.751,1-2.251,8.5,8.5,21.256s14.754,2.5,17.755-3l-1.75-22.506-4.751-5.752Z" transform="translate(-640.384 -281.254)"/><path class="g" d="M704.559,207.1l8.252-11.5-.75-1.25-10.753-5.5v-3.5l16.755,4.5,1.134,1.8L709.31,213.1Z" transform="translate(-541.825 -143.194)"/><path class="g" d="M572.511,242.082l-.5-.25-12.5-.5,9.5-8.252-3-3.751-14.254,10.753v2.5l20.256,8.5Z" transform="translate(-426.281 -177.177)"/><path class="e" d="M766.819,285.774l1.751-1s3.751-5,5.251-3-3.5,5.752-3.5,5.752l-2.751,1Z" transform="translate(-627.216 -232.498)"/><path class="e" d="M823.271,250.239l-2.751-1.5s-8.252.75-7.252,2.5,6.752.25,6.752.25l3.251,1Z" transform="translate(-663.037 -207.341)"/><path class="f" d="M802.969,268.256a5.568,5.568,0,0,0-3.377,5.3,7.508,7.508,0,0,0,.223,2.009,5.89,5.89,0,0,1-1.105,4.574,45.285,45.285,0,0,0-2.57,4.42l-.01.02,3.53.441.751-5.851a29.134,29.134,0,0,1,2.314-8.214l.024-.055a5.683,5.683,0,0,0,4.633,2.868l-1.1-1.1s4.854,1.986,6.619,1.986c0,0,1.324.883,0,2.206s-3.971,4.413-2.427,6.839.221,3.089.221,3.089l2.427-1.324,1.1-.662v.883l5.736-.662s1.544-.221-1.765-3.971a3.932,3.932,0,0,1-.492-2.713,6.337,6.337,0,0,0,.241-2.963C817.2,271.24,814.292,263.017,802.969,268.256Z" transform="translate(-649.861 -221.112)"/><path class="a" d="M647.633,674.315a8.472,8.472,0,0,1-.894-3.352,23.242,23.242,0,0,1,1.717-10.317,20.806,20.806,0,0,0-.824-16.559l.206-.12a18.278,18.278,0,0,1,1.724,4.884,21.308,21.308,0,0,1-.883,11.877c-3.386,9.109-.869,13.42-.843,13.463Z" transform="translate(-534.387 -512.69)"/><circle class="a" cx="1.547" cy="1.547" r="1.547" transform="translate(110.372 127.766)"/><circle class="a" cx="1.547" cy="1.547" r="1.547" transform="translate(115.252 133.478)"/><circle class="a" cx="1.547" cy="1.547" r="1.547" transform="translate(111.919 137.286)"/><circle class="a" cx="1.547" cy="1.547" r="1.547" transform="translate(115.966 140.499)"/><circle class="a" cx="1.547" cy="1.547" r="1.547" transform="translate(110.729 145.497)"/><path class="a" d="M654.187,755.03s-1.547-3.808,3.094-6.664Z" transform="translate(-540.006 -593.348)"/><path class="a" d="M625.755,763.726s-.7-4.05-6.153-4.015Z" transform="translate(-513.478 -602.113)"/><path class="h" d="M243.2,586.135l1.364,10.233s-4.321,12.735.227,25.015l1.592,8.869h5.913l.682-2.956s-2.729-2.274-2.729-7.5l2.274-23.423.455-12.053Z" transform="translate(-222.291 -466.605)"/><path class="f" d="M254.255,770.845s-2.274-1.364-2.5,0-2.956,7.732-.455,7.732a32.534,32.534,0,0,0,6.595-1.137,10.451,10.451,0,0,1,5.458-1.819c2.956,0,3.639-3.638,3.184-4.548s-1.592-2.274-2.729-2.047a15.05,15.05,0,0,1-2.5.227l-3.59-1.785S257.211,771.072,254.255,770.845Z" transform="translate(-228.119 -608.107)"/><path class="h" d="M308.669,562.808l5.891,8.478s1.977,13.3,11.635,22.145l5.469,7.161,5.259-2.7-.744-2.941s-3.467-.775-5.857-5.428l-8.683-21.873-5.1-10.928Z" transform="translate(-273.253 -445.285)"/><path class="f" d="M408.252,720.6s-2.646-.174-2.225,1.143.9,8.228,3.129,7.085A32.537,32.537,0,0,0,414.5,724.8a10.452,10.452,0,0,1,4.023-4.113c2.629-1.351,1.573-4.9.753-5.5s-2.455-1.3-3.363-.573a15.038,15.038,0,0,1-2.121,1.346l-4.009.053S410.985,719.447,408.252,720.6Z" transform="translate(-348.436 -567.032)"/><circle class="h" cx="6.367" cy="6.367" r="6.367" transform="translate(21.474 45.282)"/><path class="h" d="M83.158,239.621l-5.23,7.05,6.367,2.274,2.956-6.595Z" transform="translate(-60.207 -185.129)"/><path class="f" d="M230.46,331.059l-.262-.242a7.893,7.893,0,0,0-6.333-2.032h0s.387-3.072-6.06-2.787l-3.036,2.559a12.623,12.623,0,0,0-3.07,10.574c1.137,6.367,1.251,22.4,1.251,22.4l3.411,27.971s25.7-1.137,30.473-11.6l-14.554-30.473Z" transform="translate(-198.184 -267.016)"/><path class="h" d="M268.861,378.316l2.5,13.645,10.461,17.283s0,8.187,4.321,7.277-.455-8.414-.455-8.414l-9.324-18.42-1.819-11.37Z" transform="translate(-242.498 -307.451)"/><path class="f" d="M112.928,284.3l.455,7.732,7.049-.692-1.136-7.722Z" transform="translate(-87.247 -219.123)"/><path class="f" d="M238.588,257.157s3.757-7.228-5.108-7.657c0,0-5.3-3.126-9.766,3.3L219.1,259.55l1.1-.163.085,1.094,1.351.924,1.1-1.031-.255,1.649,11.753,5.691s-4.278-5.235-2.241-11.058l.637,1.482Z" transform="translate(-204.051 -207.341)"/><path class="i" d="M465.437,525.354c-2.623,9.945-10.77,16.613-18.979,16.065-.116-.006-.234-.015-.349-.026l-.017.428a.3.3,0,0,1,0,.048,1.776,1.776,0,0,1-2.226,1.6l-2.221-.586a1.777,1.777,0,0,1-1.168-2.451l.019-.041.219-.489.048-.11c-7.072-3.773-10.634-13.363-8.071-23.077,2.908-11.022,12.594-18.023,21.639-15.637S468.345,514.332,465.437,525.354Z" transform="translate(-368.429 -401.936)"/><ellipse class="d" cx="5.138" cy="1.72" rx="5.138" ry="1.72" transform="translate(67.729 109.105) rotate(-45.222)"/><path class="b" d="M475.423,675.306a.3.3,0,0,1,0,.048l-5.6-1.476.219-.49,5.746,1.516c-.116-.006-.234-.015-.349-.026Z" transform="translate(-397.76 -535.421)"/><path class="i" d="M685.432,152.608c7.881,5.417,11.018,14.44,7.774,21.193-.044.1-.092.193-.141.286l.371.152a.285.285,0,0,1,.041.019,1.572,1.572,0,0,1,.663,2.395l-1.263,1.686a1.723,1.723,0,0,1-2.552.2l-.03-.03-.357-.343-.081-.076c-5.7,4.754-15.352,4.671-23.051-.621-8.735-6-11.647-16.434-6.5-23.3S676.7,146.6,685.432,152.608Z" transform="translate(-542.959 -129.916)"/><ellipse class="d" cx="1.61" cy="4.677" rx="1.61" ry="4.677" transform="matrix(0.902, -0.431, 0.431, 0.902, 116.026, 34.399)"/><path class="b" d="M802.751,260.112a.282.282,0,0,1,.041.019l-3.182,4.247-.358-.343,3.268-4.362c-.044.1-.092.193-.141.286Z" transform="translate(-652.273 -215.789)"/><path class="i" d="M460.975,77.634c4.758,8.284,3.684,17.765-2.155,22.445-.081.067-.166.134-.25.2l.269.3a.283.283,0,0,1,.028.035,1.57,1.57,0,0,1-.437,2.443l-1.866.972a1.721,1.721,0,0,1-2.384-.926l-.014-.04-.174-.463-.04-.1c-7.19,1.817-15.844-2.426-20.491-10.518-5.273-9.181-3.389-19.833,4.21-23.793S455.7,68.453,460.975,77.634Z" transform="translate(-367.357 -66.696)"/><ellipse class="d" cx="4.672" cy="1.608" rx="4.672" ry="1.608" transform="translate(64.727 19.399) rotate(-89.897)"/><path class="b" d="M538.749,213.99a.286.286,0,0,1,.029.035l-4.7,2.45-.174-.463,4.828-2.516c-.081.067-.166.134-.25.2Z" transform="translate(-447.267 -180.112)"/><path class="c" d="M995.5,661.193c-1.888,3.483-5.468,5.049-8.39,3.85-.042-.016-.083-.034-.124-.052l-.047.161a.118.118,0,0,1-.006.018.626.626,0,0,1-.957.344l-.749-.491a.756.756,0,0,1-.192-1.077l.011-.014.126-.161.028-.036c-2.206-2.294-2.591-6.387-.746-9.79,2.093-3.861,6.262-5.367,9.313-3.366S997.6,657.333,995.5,661.193Z" transform="translate(-794.453 -517.115)"/><ellipse class="d" cx="1.912" cy="0.692" rx="1.912" ry="0.692" transform="translate(191.779 135.101) rotate(-30.313)"/><path class="b" d="M992.949,712.979a.1.1,0,0,1-.006.018l-1.887-1.239.126-.16,1.938,1.272c-.042-.016-.083-.034-.124-.052Z" transform="translate(-800.46 -564.941)"/></g></svg>