<svg xmlns="http://www.w3.org/2000/svg" width="284.391" height="163" viewBox="0 0 284.391 163">
  <g id="Group_876" data-name="Group 876" transform="translate(-632 -118)">
    <g id="Group_874" data-name="Group 874" transform="translate(22 22)">
      <ellipse id="Ellipse_143" data-name="Ellipse 143" cx="92.5" cy="81.5" rx="92.5" ry="81.5" transform="translate(610 96)" fill="#fff"/>
      <g id="undraw_forgot_password_re_hxwm" transform="translate(640.464 107.5)">
        <path id="Path_731" data-name="Path 731" d="M437.524,426.2c8.947-15.739,26.013-27.823,44.08-26.659a83.412,83.412,0,0,0-21.938,52.9c-.3,7.587.163,16.056-4.874,21.737-3.134,3.535-7.925,5.247-12.636,5.606s-9.421-.492-14.068-1.34l-1.127.346C426.532,460.695,428.577,441.942,437.524,426.2Z" transform="translate(-346.753 -348.353)" fill="#e6f0fd"/>
        <path id="Path_732" data-name="Path 732" d="M481.609,399.027A71.3,71.3,0,0,0,449.864,429.3a30.7,30.7,0,0,0-3.361,9.013,17.608,17.608,0,0,0,.916,9.222c.992,2.76,2.327,5.467,2.631,8.42a10.782,10.782,0,0,1-2.886,8.332c-2.522,2.826-5.909,4.577-9.281,6.174-3.744,1.774-7.661,3.556-10.312,6.866-.321.4-.925-.121-.6-.521,4.613-5.759,12.51-6.842,17.987-11.481,2.555-2.165,4.474-5.113,4.353-8.567-.106-3.02-1.48-5.814-2.509-8.6a18.791,18.791,0,0,1-1.232-8.984,28.383,28.383,0,0,1,3-9.109,69.168,69.168,0,0,1,12.72-17.48,72.559,72.559,0,0,1,20.062-14.314C481.812,398.05,482.067,398.806,481.609,399.027Z" transform="translate(-346.734 -347.456)" fill="#fff"/>
        <path id="Path_733" data-name="Path 733" d="M506.508,459.3a10.7,10.7,0,0,1-3.228-13.469c.234-.457.955-.116.721.342a9.9,9.9,0,0,0,3.028,12.523C507.445,459,506.921,459.6,506.508,459.3Z" transform="translate(-401.344 -371.648)" fill="#fff"/>
        <path id="Path_734" data-name="Path 734" d="M498.289,552.967a20.616,20.616,0,0,0,13.053-7.44c.323-.4.926.122.6.521a21.444,21.444,0,0,1-13.6,7.715c-.509.073-.565-.723-.058-.8Z" transform="translate(-398.379 -447.3)" fill="#fff"/>
        <path id="Path_735" data-name="Path 735" d="M573.177,432.431a6.055,6.055,0,0,0,5.412,1.929c.508-.079.563.717.058.8a6.785,6.785,0,0,1-5.991-2.121.412.412,0,0,1-.041-.563A.4.4,0,0,1,573.177,432.431Z" transform="translate(-452.98 -360.791)" fill="#fff"/>
        <path id="Path_736" data-name="Path 736" d="M515.709,554.44c-.316.059-.632.117-.95.182a79.728,79.728,0,0,0-12.467,3.446c-.315.11-.633.226-.945.344A84.062,84.062,0,0,0,474.909,574.5a81.631,81.631,0,0,0-8.563,8.973c-3.622,4.425-7.2,9.511-11.929,12.4a14.017,14.017,0,0,1-1.524.826l-27.264-11.309c-.049-.057-.1-.107-.15-.164l-1.109-.4c.124-.175.256-.353.38-.528.071-.1.149-.2.22-.3.049-.067.1-.134.14-.2.016-.022.033-.045.047-.061.041-.063.085-.118.124-.175q1.1-1.5,2.231-2.989c0-.006,0-.006.011-.01a120.032,120.032,0,0,1,19.491-20.626c.22-.178.442-.363.675-.537a77.9,77.9,0,0,1,10.529-7.122,68.842,68.842,0,0,1,6.246-3.089,57.268,57.268,0,0,1,17.349-4.425c11.92-1.107,24.061,1.611,33.2,9.1C515.25,554.052,515.478,554.242,515.709,554.44Z" transform="translate(-345.502 -453.598)" fill="#e6f0fd"/>
        <path id="Path_737" data-name="Path 737" d="M516.506,576.1a71.3,71.3,0,0,0-43.572,5.058,30.7,30.7,0,0,0-8.11,5.173A17.609,17.609,0,0,0,460,594.251c-.869,2.8-1.434,5.767-2.969,8.307a10.782,10.782,0,0,1-7.321,4.915c-3.715.738-7.474.1-11.128-.658-4.057-.838-8.258-1.773-12.368-.726-.5.127-.666-.653-.168-.78,7.151-1.821,14.108,2.07,21.274,1.663,3.344-.19,6.65-1.389,8.633-4.219,1.734-2.475,2.319-5.533,3.174-8.377a18.79,18.79,0,0,1,4.425-7.915A28.383,28.383,0,0,1,471.438,581a69.165,69.165,0,0,1,20.68-6.3,72.558,72.558,0,0,1,24.637.65C517.257,575.447,517.005,576.2,516.506,576.1Z" transform="translate(-346.519 -474.943)" fill="#fff"/>
        <path id="Path_738" data-name="Path 738" d="M612.019,558.325a10.7,10.7,0,0,1,5.532-12.7c.462-.224.832.483.37.707a9.9,9.9,0,0,0-5.122,11.822c.151.491-.63.656-.78.168Z" transform="translate(-481.606 -447.889)" fill="#fff"/>
        <path id="Path_739" data-name="Path 739" d="M549.832,642.411a20.617,20.617,0,0,0,14.9,1.918c.5-.125.666.655.168.78a21.445,21.445,0,0,1-15.5-2.028C548.949,642.833,549.384,642.164,549.832,642.411Z" transform="translate(-436.013 -524.581)" fill="#fff"/>
        <path id="Path_740" data-name="Path 740" d="M694.317,575.244a6.055,6.055,0,0,0,3.159,4.8c.453.243.018.911-.432.671a6.785,6.785,0,0,1-3.507-5.3.412.412,0,0,1,.306-.474.4.4,0,0,1,.474.306Z" transform="translate(-541.668 -469.571)" fill="#fff"/>
        <path id="Path_741" data-name="Path 741" d="M246.119,523.238c-3.818-18.462-8.591-24.617-8.591-24.617l-1.823-1.414-2.193-1.7.011-.219-.52-.177-.122-.095-.2-.154-.032.035-.068.07-9.922-3.373-12.588-4.276-5.829-7.577a10.082,10.082,0,0,0-8.065-3.934l-18.616.138a10.082,10.082,0,0,0-6.782,2.69l-12.236,11.35-19.066,9.106-.032-.032-.2.143-2.946,1.409.122.633-1.823,1.316s-4.773,5.727-8.591,22.906c-.971,4.371-1.449,13.747-1.622,25.3a4.41,4.41,0,0,0,4.408,4.476H243.337a4.411,4.411,0,0,0,4.408-4.471C247.577,538.2,247.1,527.978,246.119,523.238Z" transform="translate(-124.382 -403.74)" fill="#3f3d56"/>
        <path id="Path_742" data-name="Path 742" d="M576.057,191.732a14.939,14.939,0,1,0,0,29.878h111.33a14.939,14.939,0,1,0,0-29.878Z" transform="translate(-448.399 -175.631)" fill="#e5e5e5"/>
        <path id="Path_743" data-name="Path 743" d="M584.049,202.747a11.915,11.915,0,1,0,0,23.831H695.378a11.915,11.915,0,1,0,0-23.831Z" transform="translate(-456.391 -183.624)" fill="#fff"/>
        <circle id="ab6171fa-7d69-4734-b81c-8dff60f9761b" cx="24.389" cy="24.389" r="24.389" transform="translate(39.639 31.54)" fill="#9e616a"/>
        <path id="Path_744" data-name="Path 744" d="M339.148,444.147q-.156-.344-.312-.691c.04,0,.079.007.119.008Z" transform="translate(-281.591 -369.114)" fill="#2f2e41"/>
        <path id="Path_745" data-name="Path 745" d="M246.106,246.079a6.788,6.788,0,0,1,4.252-1.839c1.577.051,3.176,1.475,2.85,3.019a25.063,25.063,0,0,1,30.161-11.31c3.92,1.383,7.764,4.15,8.664,8.207a7.392,7.392,0,0,0,.931,3.03,3.459,3.459,0,0,0,3.681.933l.039-.011a1.152,1.152,0,0,1,1.392,1.627l-1.109,2.068a8.887,8.887,0,0,0,4.234-.09,1.151,1.151,0,0,1,1.223,1.792,20.069,20.069,0,0,1-16,8.225c-4.431-.027-8.908-1.554-13.221-.535a11.484,11.484,0,0,0-7.724,16.122c-1.325-1.449-3.886-1.106-5.241.315a7.189,7.189,0,0,0-1.569,5.5,25.521,25.521,0,0,0,2.62,8.566,25.609,25.609,0,0,1-15.181-45.618Z" transform="translate(-205.764 -211.941)" fill="#2f2e41"/>
        <path id="Path_746" data-name="Path 746" d="M87.464,495.253,94.3,532.471l4.1.357Z" transform="translate(-63.459 -381.328)" opacity="0.2"/>
        <path id="Path_747" data-name="Path 747" d="M333.073,485.026l-6.841,40-4.1.384Z" transform="translate(-236.244 -373.908)" opacity="0.2"/>
        <path id="Path_748" data-name="Path 748" d="M256.286,159.947a2.431,2.431,0,0,1-3.254-1.427,2.469,2.469,0,0,1,1.294-3.369,2.593,2.593,0,0,1,1.96,4.8Zm-2.512-7.543-1.043.435a1.125,1.125,0,0,1-1.429-.524l-.052-.1a9.122,9.122,0,0,1-.38-7.306c.807-2.532,1.142-4.314.468-5.927-.779-1.866-2.442-2.45-4.564-1.6a3.877,3.877,0,0,0-1.732.98,1.486,1.486,0,0,1-1.076.437,1.437,1.437,0,0,1-1.028-.451,1.468,1.468,0,0,1-.01-2,11.4,11.4,0,0,1,3.855-2.647c4.558-1.9,6.852.907,7.9,3.421,1.027,2.459.449,4.741-.479,7.7a7.64,7.64,0,0,0,.151,6.085,1.12,1.12,0,0,1-.583,1.507Z" transform="translate(-210.11 -133.069)" fill="#0e65f2"/>
        <path id="Path_749" data-name="Path 749" d="M645.182,269.3h-22.15a.534.534,0,0,1,0-1.067h22.15a.534.534,0,1,1,0,1.067Z" transform="translate(-489.894 -235.87)" fill="#0e65f2"/>
        <path id="Path_750" data-name="Path 750" d="M747.563,269.949h-22.15a.534.534,0,0,1,0-1.067h22.15a.534.534,0,0,1,0,1.067Z" transform="translate(-565.021 -236.363)" fill="#0e65f2"/>
        <path id="Path_751" data-name="Path 751" d="M849.945,270.6h-22.15a.534.534,0,1,1,0-1.067h22.15a.534.534,0,1,1,0,1.067Z" transform="translate(-640.147 -236.856)" fill="#0e65f2"/>
        <path id="Path_752" data-name="Path 752" d="M952.327,271.245h-22.15a.534.534,0,1,1,0-1.067h22.15a.534.534,0,1,1,0,1.067Z" transform="translate(-715.78 -237.349)" fill="#0e65f2"/>
        <circle id="Ellipse_139" data-name="Ellipse 139" cx="4.117" cy="4.117" r="4.117" transform="translate(140.08 25.02)" fill="#0e65f2"/>
        <circle id="Ellipse_140" data-name="Ellipse 140" cx="4.117" cy="4.117" r="4.117" transform="translate(167.55 25.02)" fill="#0e65f2"/>
        <circle id="Ellipse_141" data-name="Ellipse 141" cx="4.117" cy="4.117" r="4.117" transform="translate(195.02 25.02)" fill="#0e65f2"/>
        <circle id="Ellipse_142" data-name="Ellipse 142" cx="4.117" cy="4.117" r="4.117" transform="translate(221.815 25.02)" fill="#0e65f2"/>
      </g>
    </g>
  </g>
</svg>
