<svg xmlns="http://www.w3.org/2000/svg" width="18.939" height="18.844" viewBox="0 0 18.939 18.844"><defs><style>.a{fill:none;stroke:#0e65f2;stroke-miterlimit:10;stroke-width:1.5px;}</style></defs><g transform="translate(-93.955 -438.283) rotate(45)"><path class="a" d="M389.978,244.413h0a2.6,2.6,0,0,1-2.595-2.595v-5.045a2.6,2.6,0,0,1,2.595-2.595h0a2.6,2.6,0,0,1,2.595,2.595v5.045" transform="translate(-0.236 0)"/><path class="a" d="M389.675,271.668h0a2.6,2.6,0,0,1,2.595,2.595v5.045a2.6,2.6,0,0,1-2.595,2.595h0a2.6,2.6,0,0,1-2.595-2.595v-5.045" transform="translate(0 -29.195)"/></g></svg>