<svg xmlns="http://www.w3.org/2000/svg" width="14.051" height="17.457" viewBox="0 0 14.051 17.457">
  <g id="lock" transform="translate(-298.007 -576.411)">
    <path id="Path_170" data-name="Path 170" d="M311.558,606.862a2.473,2.473,0,0,0-2.466-2.466h-8.119a2.473,2.473,0,0,0-2.466,2.466v3.968a2.448,2.448,0,0,0,.023.317v3.4h13.016v-3.491c.006-.073.011-.147.011-.222Z" transform="translate(0 -21.174)" fill="#e6f0fd" stroke="#231f20" stroke-miterlimit="10" stroke-width="1"/>
    <path id="Path_171" data-name="Path 171" d="M323.021,619.885a.462.462,0,0,0,.038-.183v-1.048a.468.468,0,1,0-.936,0V619.7a.467.467,0,0,0,.038.183,1.292,1.292,0,1,0,.861,0Z" transform="translate(-17.559 -31.797)" fill="none" stroke="#0e65f2" stroke-miterlimit="10" stroke-width="1"/>
    <path id="Path_172" data-name="Path 172" d="M314,583.132v-3.466a2.764,2.764,0,0,1,2.755-2.755h.424a2.763,2.763,0,0,1,2.755,2.755v3.466" transform="translate(-11.937)" fill="none" stroke="#231f20" stroke-miterlimit="10" stroke-width="1"/>
  </g>
</svg>
