<svg xmlns="http://www.w3.org/2000/svg" width="16.579" height="28.522" viewBox="0 0 16.579 28.522"><defs><style>.a,.c{fill:none;stroke-miterlimit:10;}.a{stroke:#1b1d1c;}.b{fill:#e6f0fd;}.c{stroke:#0e65f2;stroke-width:1.5px;}</style></defs><g transform="translate(0.5 0.5)"><line class="a" x2="6.465" transform="translate(4.514 21.538)"/><line class="a" x2="6.465" transform="translate(4.514 24.496)"/><path class="b" d="M243.941,499.112c2.308-2.976,5.763-7.908,5.763-10.773a7.789,7.789,0,0,0-15.579,0c0,2.865,3.455,7.8,5.763,10.773C239.034,499.739,244.795,499.739,243.941,499.112Z" transform="translate(-234.125 -480.549)"/><path class="a" d="M243.941,499.112c2.308-2.976,5.763-7.908,5.763-10.773a7.789,7.789,0,0,0-15.579,0c0,2.865,3.455,7.8,5.763,10.773a3.437,3.437,0,0,0-1.412,2.769v2.751a3.439,3.439,0,1,0,6.878,0v-2.751A3.437,3.437,0,0,0,243.941,499.112Z" transform="translate(-234.125 -480.549)"/><path class="c" d="M249.006,502.26l2.029,2.185,3.122-5.775" transform="translate(-243.659 -492.159)"/><line class="a" x2="4.054" transform="translate(5.763 18.581)"/></g></svg>