<svg xmlns="http://www.w3.org/2000/svg" width="18.994" height="32.788" viewBox="0 0 18.994 32.788"><defs><style>.a{fill:#fff;}.b{fill:none;stroke:#7b7b7b;stroke-miterlimit:10;}</style></defs><g transform="translate(0.5 0.5)"><path class="a" d="M245.463,501.989c2.666-3.437,6.656-9.134,6.656-12.443a9,9,0,1,0-17.994,0c0,3.31,3.99,9.006,6.656,12.443C239.8,502.714,246.448,502.714,245.463,501.989Z" transform="translate(-234.125 -480.548)"/><path class="b" d="M245.463,501.989c2.666-3.437,6.656-9.134,6.656-12.443a9,9,0,1,0-17.994,0c0,3.31,3.99,9.006,6.656,12.443a3.969,3.969,0,0,0-1.631,3.2v3.177a3.972,3.972,0,1,0,7.944,0v-3.177A3.97,3.97,0,0,0,245.463,501.989Z" transform="translate(-234.125 -480.549)"/><line class="b" x2="7.467" transform="translate(5.213 24.877)"/><line class="b" x2="7.467" transform="translate(5.213 28.293)"/><line class="b" x2="4.682" transform="translate(6.656 21.461)"/><path class="b" d="M249.006,502.816l2.344,2.524,3.605-6.67" transform="translate(-242.83 -491.15)"/></g></svg>