<svg xmlns="http://www.w3.org/2000/svg" width="311.299" height="186.1" viewBox="0 0 311.299 186.1"><defs><style>.a{fill:#0e65f2;}.b{fill:#ccc;}.c{fill:#e6f0fd;}.d{fill:#ffb8b8;}.e{fill:#2f2e41;}.f{fill:#464353;}.g{fill:#3f3d56;}.h{fill:#fff;}</style></defs><path class="a" d="M820.554,597.256a16.086,16.086,0,0,1-5.771-13.867c.635-5.179,4.567-9.94,9.668-11.04s10.915,1.945,12.464,6.927c.853-9.606,1.835-19.615,6.942-27.8a29.436,29.436,0,0,1,21.315-13.656,26.411,26.411,0,0,1,23.234,9.484,23.97,23.97,0,0,1,2.948,24.678c-2.793,5.795-7.939,10.107-13.331,13.616a86.038,86.038,0,0,1-58.844,12.873Z" transform="translate(-582.216 -413.247)"/><path class="b" d="M921.749,545.655a141.966,141.966,0,0,0-41.714,56.4c-.4.975,1.185,1.4,1.579.435a140.387,140.387,0,0,1,41.292-55.682C923.724,546.147,922.56,545,921.749,545.655Z" transform="translate(-624.144 -418.245)"/><path class="a" d="M265.212,554.76c5.474-4.625,8.8-11.932,7.927-19.046s-6.273-13.653-13.278-15.163-14.992,2.671-17.119,9.514c-1.171-13.194-2.52-26.941-9.535-38.176a40.431,40.431,0,0,0-29.276-18.756c-11.923-1.3-24.476,3.616-31.912,13.027s-9.256,23.091-4.049,33.9c3.836,7.959,10.9,13.882,18.31,18.7A118.172,118.172,0,0,0,267.1,556.438" transform="translate(-165 -371.666)"/><path class="b" d="M214.027,483.886a193.347,193.347,0,0,1,26.945,26.756,193.912,193.912,0,0,1,30.349,50.716c.546,1.339-1.628,1.922-2.168.6a191.918,191.918,0,0,0-17.536-33.179,192.649,192.649,0,0,0-39.179-43.3c-1.123-.914.477-2.5,1.59-1.59Z" transform="translate(-195.218 -378.53)"/><path class="c" d="M555.1,375.637H424.5v-134a51.763,51.763,0,0,1,51.7-51.7H503.4a51.763,51.763,0,0,1,51.7,51.7Z" transform="translate(-331.647 -189.931)"/><path class="b" d="M527.908,375.639H424.5v-134a51.3,51.3,0,0,1,9.874-30.394c.238-.324.474-.643.719-.959a51.693,51.693,0,0,1,11-10.681c.236-.172.473-.341.714-.509a51.585,51.585,0,0,1,11.261-5.889c.236-.09.477-.179.718-.266a51.531,51.531,0,0,1,11.131-2.625c.235-.032.477-.057.719-.082a52.342,52.342,0,0,1,11.13,0c.241.025.483.05.721.083a51.522,51.522,0,0,1,11.128,2.625c.241.086.482.176.719.266a51.456,51.456,0,0,1,11.13,5.8c.24.165.481.334.718.5a52.239,52.239,0,0,1,6.578,5.569,51.617,51.617,0,0,1,4.553,5.206c.244.315.481.635.718.958a51.3,51.3,0,0,1,9.875,30.395Z" transform="translate(-331.647 -189.933)"/><circle class="a" cx="5.725" cy="5.725" r="5.725" transform="translate(182.128 114.322)"/><path class="d" d="M582.98,477.415h-4.387l-2.087-16.92h6.475Z" transform="translate(-370.223 -295.723)"/><path class="e" d="M564.021,504.28h8.46v5.327H558.695A5.327,5.327,0,0,1,564.021,504.28Z" transform="translate(-358.785 -323.841)"/><path class="d" d="M643.98,477.415h-4.387l-2.087-16.92h6.475Z" transform="translate(-409.397 -295.723)"/><path class="e" d="M625.022,504.28h8.46v5.327H619.695A5.327,5.327,0,0,1,625.022,504.28Z" transform="translate(-397.959 -323.841)"/><path class="d" d="M696.907,444.661a3.844,3.844,0,0,1,1.614-5.669l14.912-41.1,7.338,4-17.027,39.278a3.865,3.865,0,0,1-6.837,3.488Z" transform="translate(-506.156 -323.479)"/><path class="d" d="M804.188,461.739a3.844,3.844,0,0,1-1.035-5.8l-4.62-43.478,8.351.382,1.92,42.766a3.865,3.865,0,0,1-4.616,6.133Z" transform="translate(-571.845 -332.835)"/><circle class="d" cx="8.788" cy="8.788" r="8.788" transform="translate(210.233 49.222)"/><path class="f" d="M766.628,434.651h-26.5l.032-.206c.048-.308,4.722-30.929,1.275-40.947a4.227,4.227,0,0,1,2.172-5.218h0c4.928-2.321,14.387-5.178,22.371,1.757a10.1,10.1,0,0,1,3.385,8.371Z" transform="translate(-534.341 -315.635)"/><path class="f" d="M732.946,413.314l-11.928-2.42,5.591-13.25a5.008,5.008,0,0,1,9.7,2.5Z" transform="translate(-522.066 -320.908)"/><path class="f" d="M795.587,419.471l-.717-16.439c-.544-3.09,1.225-6.011,3.946-6.489s5.379,1.667,5.925,4.78l2.7,15.36Z" transform="translate(-569.43 -322.572)"/><path class="e" d="M763.185,517.049c4.263,16.237,4.728,36.88,3.578,59.4l-5.725-.716-10.377-42.938-5.725,43.653-6.441-.358c-1.924-23.626-3.8-43.909-.716-57.25Z" transform="translate(-531.78 -400.001)"/><path class="e" d="M763.96,335.8a2.839,2.839,0,0,1-4.9-1.577,2.875,2.875,0,0,1,0-.557c.11-1.057.721-2.016.575-3.132a1.642,1.642,0,0,0-.3-.769c-1.306-1.75-4.373.782-5.606-.8-.756-.971.133-2.5-.447-3.586-.766-1.432-3.034-.726-4.456-1.51-1.583-.873-1.488-3.3-.446-4.778a7.516,7.516,0,0,1,5.7-2.9,15.284,15.284,0,0,1,6.438,1.256,12.866,12.866,0,0,1,6.083,4.218,10.3,10.3,0,0,1,1.041,8.767C767.112,332.209,765.3,334.377,763.96,335.8Z" transform="translate(-539.148 -271.002)"/><path class="g" d="M530.1,708.045H265.923a.426.426,0,1,1,0-.852H530.1a.426.426,0,0,1,0,.852Z" transform="translate(-229.538 -522.109)"/><path class="h" d="M546.342,405.849H499.826a2.313,2.313,0,0,1-2.326-2.3V299.726a2.313,2.313,0,0,1,2.326-2.3h46.516a2.313,2.313,0,0,1,2.326,2.3V403.553a2.313,2.313,0,0,1-2.326,2.3Z" transform="translate(-378.526 -258.966)"/><rect class="b" width="51.168" height="0.716" transform="translate(118.974 72.06)"/><rect class="b" width="51.168" height="0.716" transform="translate(119.152 112.891)"/><rect class="b" width="0.716" height="108.776" transform="translate(135.075 38.465)"/><rect class="b" width="0.716" height="108.776" transform="translate(152.966 38.465)"/></svg>