<svg xmlns="http://www.w3.org/2000/svg" width="16.516" height="16.545" viewBox="0 0 16.516 16.545">
    <g id="Group_252" data-name="Group 252" transform="translate(372.123 453.541) rotate(180)">
        <rect id="Rectangle_41" data-name="Rectangle 41" width="4.212" height="7.384" transform="translate(356.107 445.573)" fill="none" stroke="red" stroke-miterlimit="10" stroke-width="1"/>
        <path id="Path_54" data-name="Path 54" d="M372.4,446.175a3.779,3.779,0,0,1,.6-1.422c.437-.547,2.9-3.61,3.172-5.087a3.873,3.873,0,0,0,.055-1.969,1.641,1.641,0,0,1,1.969.492c.766,1.039-.6,4.266-.547,4.977a.717.717,0,0,0,.711.766c.219.055,3.063-.711,4.376.055a1.17,1.17,0,0,1,.219,2.024s.908.383.853,1.2-1.017,1.2-1.017,1.2a1.159,1.159,0,0,1,.766,1.422c-.166.665-1.258.93-1.258.93a1.369,1.369,0,0,1,.361,1.149c-.252,1.039-.689,1.039-1.619,1.094-1.328.078-8.533-.055-8.533-.055Z" transform="translate(-12.188)" fill="none" stroke="red" stroke-linejoin="round" stroke-width="1"/>
    </g>
</svg>
