<svg id="undraw_my_password_re_ydq7" xmlns="http://www.w3.org/2000/svg" width="166.136" height="161.893" viewBox="0 0 166.136 161.893">
  <path id="Path_753" data-name="Path 753" d="M499.7,317.365h-8.84V392.73a9,9,0,0,1-9,9H414.269v.086a9,9,0,0,0,9,9H499.7a9,9,0,0,0,9-9V326.369A9,9,0,0,0,499.7,317.365Z" transform="translate(-393.732 -281.074)" fill="#e6f0fd"/>
  <path id="Path_754" data-name="Path 754" d="M791.435,617.755a.764.764,0,0,0,.554-1.324l-.052-.208.021-.05a2.052,2.052,0,0,1,3.785.014,18.222,18.222,0,0,1,1.6,4.561,6.07,6.07,0,0,1-.107,2.088,24.336,24.336,0,0,0,2.214-10.107,23.463,23.463,0,0,0-.146-2.62q-.121-1.07-.335-2.125a24.619,24.619,0,0,0-4.882-10.434,6.551,6.551,0,0,1-2.725-2.827,5,5,0,0,1-.454-1.366,6.168,6.168,0,0,0,.4-2.127c.185-.281.516-.42.718-.694,1-1.361,2.388-1.124,3.11.726,1.543.779,1.558,2.07.611,3.312-.6.79-.685,1.859-1.213,2.705.054.07.111.137.165.207a24.776,24.776,0,0,1,2.586,4.1,10.3,10.3,0,0,1,.615-4.784,17.251,17.251,0,0,1,2.663-3.843,2.114,2.114,0,0,1,3.765,1.038l.006.054q-.216.122-.424.259a1.036,1.036,0,0,0,.418,1.886l.021,0a10.314,10.314,0,0,1-.272,1.542c1.246,4.82-1.444,6.575-5.286,6.654-.085.043-.167.087-.252.128a25.293,25.293,0,0,1,1.361,6.406,23.992,23.992,0,0,1-.017,3.873l.007-.046a6.338,6.338,0,0,1,2.164-3.66c1.665-1.368,4.018-1.871,5.814-2.971a1.189,1.189,0,0,1,1.822,1.157l-.007.048a6.974,6.974,0,0,0-.781.376q-.217.122-.424.259a1.036,1.036,0,0,0,.418,1.886l.021,0,.043.007a10.322,10.322,0,0,1-1.9,2.973c-.779,4.208-4.126,4.607-7.707,3.382h0a25.281,25.281,0,0,1-1.7,4.958h-6.067c-.022-.067-.041-.137-.061-.2a6.891,6.891,0,0,0,1.679-.1c-.45-.552-.9-1.109-1.35-1.661a.378.378,0,0,1-.028-.033c-.228-.283-.459-.563-.687-.846h0a10.1,10.1,0,0,1,.3-2.572Z" transform="translate(-643.563 -461.697)" fill="#f2f2f2"/>
  <path id="Path_755" data-name="Path 755" d="M593.1,278.452a2.776,2.776,0,0,0,4.2.514l12.614,5.691,2.432-3.1-15.031-6.65a2.772,2.772,0,0,0-4.212,3.547Z" transform="translate(-512.047 -252.413)" fill="#a0616a"/>
  <path id="Path_756" data-name="Path 756" d="M661.83,287.077l1.251,7.089a2.409,2.409,0,0,1-2.183,2.82l-21.258,1.672-24.987-11.183,2.984-5.665,21.691,6.869Z" transform="translate(-526.65 -257.49)" fill="#0e65f2"/>
  <rect id="Rectangle_229" data-name="Rectangle 229" width="94.433" height="93.46" rx="26.744" transform="translate(0 24.507)" fill="#f2f2f2"/>
  <path id="Path_757" data-name="Path 757" d="M365.922,287.865a7.153,7.153,0,0,0-7.153,7.152v75.451a7.153,7.153,0,0,0,7.153,7.153H414.7a34.8,34.8,0,0,0,34.8-34.8v-47.8a7.153,7.153,0,0,0-7.153-7.152Z" transform="translate(-356.918 -261.506)" fill="#fff"/>
  <path id="Path_758" data-name="Path 758" d="M469.53,350.028h-42.9a1.484,1.484,0,1,1,0-2.968h42.9a1.484,1.484,0,0,1,0,2.968Z" transform="translate(-400.95 -300.771)" fill="#f2f2f2"/>
  <path id="Path_759" data-name="Path 759" d="M469.53,444.028h-42.9a1.484,1.484,0,1,1,0-2.968h42.9a1.484,1.484,0,0,1,0,2.968Z" transform="translate(-400.95 -363.123)" fill="#f2f2f2"/>
  <path id="Path_760" data-name="Path 760" d="M452.631,397.059H374.9a1.484,1.484,0,1,1,0-2.968h77.733a1.484,1.484,0,0,1,0,2.968Z" transform="translate(-366.631 -331.968)" fill="#f2f2f2"/>
  <path id="Path_761" data-name="Path 761" d="M378.275,176.044l-7.744,16.5,29.789-3.017L394.1,173.687Z" transform="translate(-245.78 -115.21)" fill="#a0616a"/>
  <path id="Path_762" data-name="Path 762" d="M406.074,440.31l-2.824-.024L402,429.138l4.168.035Z" transform="translate(-266.653 -284.655)" fill="#a0616a"/>
  <path id="Path_763" data-name="Path 763" d="M740.5,673.188a1.264,1.264,0,0,0,1.252,1.274l5.615.047.983-1.993.361,2,2.119.019L750.3,667.4l-.737-.049-3.007-.207-.97-.065-.017,2.021-4.511,3.06A1.262,1.262,0,0,0,740.5,673.188Z" transform="translate(-610.127 -513.042)" fill="#2f2e41"/>
  <path id="Path_764" data-name="Path 764" d="M315.961,438.961l-2.693-.853,2.08-11.023,3.974,1.258Z" transform="translate(-207.796 -283.293)" fill="#a0616a"/>
  <path id="Path_765" data-name="Path 765" d="M644.816,668.216a1.264,1.264,0,0,0,.822,1.585l5.354,1.695,1.525-1.616-.243,2.02,2.02.641,1.587-6.985-.69-.263-2.813-1.082-.908-.347-.61,1.927-5.211,1.6A1.262,1.262,0,0,0,644.816,668.216Z" transform="translate(-546.618 -510.914)" fill="#2f2e41"/>
  <path id="Path_766" data-name="Path 766" d="M710.444,416.522l-27.085,4.963s-4.344,3.25-3.182,4.413,1.342.984.579,1.747-2.414,1.784-2.431,2.452-12.137,30.633-12.137,30.633,1.347-.673.337.337a2.92,2.92,0,0,0-1.01,1.845L660.8,494.736l7.655.451,7.5-29.013,16.719-27.1s1.659,24.17,1.729,25.778,1.08-.413.07,1.608-1.683.673-1.01,2.02-2.426,28.764-2.426,28.764h6.987l14.986-56.829S718.338,424.163,710.444,416.522Z" transform="translate(-557.26 -346.847)" fill="#2f2e41"/>
  <path id="Path_767" data-name="Path 767" d="M742.651,279.289,731.8,278.162l-2.811,3.649-3.275,1.744a8.173,8.173,0,0,0-4.315,7.731l3.827,22.261s-3.232,7.279-1.01,9.09-1.718,6.3,3.03,4.04,25.251.337,25.251.337l-4.377-12.457,3.27-12.241.36-10.264a8.7,8.7,0,0,0-6.175-8.628l-.457-.138Z" transform="translate(-597.447 -255.07)" fill="#0e65f2"/>
  <path id="Path_768" data-name="Path 768" d="M804.124,229.995a15.7,15.7,0,0,1-2.714,8.62,16.351,16.351,0,0,0-2.279-4.218,13.129,13.129,0,0,1-1.4,8.315,1.755,1.755,0,0,1-.15.1,5.153,5.153,0,0,1-4.483.55,10.053,10.053,0,0,0,.864-12.183,15.323,15.323,0,0,1-2.068-3.1c-.694-1.863-.027-3.915.394-5.858.394-1.808.463-3.96-.75-5.285a1.275,1.275,0,0,1,1.168-.538,2.411,2.411,0,0,1,1.639,1.425,10.4,10.4,0,0,0,1.059,1.99c.895,1.082,2.419,1.338,3.7,1.909C802.22,223.1,804.049,226.592,804.124,229.995Z" transform="translate(-643.983 -214.093)" fill="#2f2e41"/>
  <path id="Path_769" data-name="Path 769" d="M590.92,688.445a.4.4,0,0,0,.4.4H676.6a.4.4,0,1,0,0-.8H591.321a.4.4,0,0,0-.4.4Z" transform="translate(-510.908 -526.953)" fill="#ccc"/>
  <circle id="Ellipse_144" data-name="Ellipse 144" cx="3.03" cy="3.03" r="3.03" transform="translate(157.782 80.719)" fill="#0e65f2"/>
  <path id="Path_770" data-name="Path 770" d="M746.277,230.237c.178-.622-1.047,3.18-.456,3.249,2.692.309,6.388,1.917,8.263,2.667.084-.01.169-.02.251-.032.2-.022.4-.054.591-.091,4.366-.826,6.045-7.533,6.045-7.595,0-.3-.724-8.583-1.864-8.706a8.4,8.4,0,0,0-.9-.049h-2.829a13.147,13.147,0,0,0-1.776-.257h0c-5.7-.434-10.186,3.037-9.766,7.261,0,0,.007.01.01.015.122.181.229.353.323.517s.169.3.236.441c.519,1.079-.815,2.436.07,2.689,1.177.337-3.095,11.411,1.563,11.411C743.766,242.4,745.787,231.953,746.277,230.237Z" transform="translate(-612.316 -216.084)" fill="#2f2e41"/>
  <circle id="Ellipse_145" data-name="Ellipse 145" cx="6.698" cy="6.698" r="6.698" transform="translate(132.347 7.255)" fill="#a0616a"/>
  <path id="Path_771" data-name="Path 771" d="M743.89,226.8c.112.059.221.113.333.167s.233.113.35.164c2.243,1.017,4.068,1.13,5.176-.331a6.191,6.191,0,0,1,.509-2.231,3.585,3.585,0,0,0,.591,2.231h2.23c2.3,1.525,3.477,1.684,1.883,6.69-.445,1.395-2.212,9.512-1.517,10.715.2-.022,2.341-8.912,2.535-8.949,4.366-.826,7.141-8.02,6.785-8.427a7.5,7.5,0,0,0-.777-3.336,7.674,7.674,0,0,0-2.916-3.172,13.526,13.526,0,0,0-2.33-.875l-.057-.015c-.246-.066-.5-.127-.748-.179a13.76,13.76,0,0,0-1.57-.238c-.037,0-.075,0-.109,0a1.183,1.183,0,0,0-.6.164s0,0,0,0a1.127,1.127,0,0,0-.333.3,1.14,1.14,0,0,0-.243.708H750.6q-.138,0-.276.007a6.659,6.659,0,0,0-6.42,6.261C743.892,226.566,743.89,226.681,743.89,226.8Z" transform="translate(-612.375 -215.832)" fill="#2f2e41"/>
  <circle id="Ellipse_146" data-name="Ellipse 146" cx="4.413" cy="4.413" r="4.413" transform="translate(141.747 0)" fill="#2f2e41"/>
  <path id="Path_772" data-name="Path 772" d="M820.938,424.948a2.776,2.776,0,0,0-1.251-4.039l.022-13.838-3.826-.947.094,16.436a2.772,2.772,0,0,0,4.961,2.388Z" transform="translate(-660.091 -339.95)" fill="#a0616a"/>
  <path id="Path_773" data-name="Path 773" d="M774.733,302.26l5.954-4.046a2.409,2.409,0,0,1,3.467.836l10.236,18.706.039,27.376-6.391-.4-2.623-22.6Z" transform="translate(-632.834 -268.095)" fill="#0e65f2"/>
  <path id="Path_774" data-name="Path 774" d="M503.266,495.453H439.634a5.219,5.219,0,0,0,0,10.437h63.633a5.219,5.219,0,0,0,0-10.437Z" transform="translate(-407.095 -399.204)" fill="#fff"/>
  <path id="Path_775" data-name="Path 775" d="M502.6,505.564H438.97a5.555,5.555,0,1,1,0-11.111H502.6a5.555,5.555,0,0,1,0,11.111ZM438.97,495.127a4.882,4.882,0,1,0,0,9.764H502.6a4.882,4.882,0,0,0,0-9.764Z" transform="translate(-406.431 -398.54)" fill="#0e65f2"/>
  <path id="Path_776" data-name="Path 776" d="M591.811,557.248H563.729a1.484,1.484,0,0,1,0-2.968h28.081a1.484,1.484,0,0,1,0,2.968Z" transform="translate(-491.887 -438.224)" fill="#0e65f2"/>
</svg>
