<svg xmlns="http://www.w3.org/2000/svg" width="14.946" height="20.139" viewBox="0 0 14.946 20.139">
  <g id="notifications_open" transform="translate(-37.711 -479.401)">
    <path id="Path_209" data-name="Path 209" d="M53.191,499.607v-5.42a5.583,5.583,0,0,0-5.754-5.358h0a5.583,5.583,0,0,0-5.754,5.358v5.42" transform="translate(-2.254 -6.519)" fill="#0e65f2" stroke="#fff" stroke-miterlimit="10" stroke-width="1.5"/>
    <path id="Path_210" data-name="Path 210" d="M39.43,531.462l-.746,2.836h13l-.746-2.836" transform="translate(0 -38.548)" fill="#0e65f2" stroke="#fff" stroke-miterlimit="10" stroke-width="1.5"/>
    <path id="Path_211" data-name="Path 211" d="M61.9,482.3v-.711a1.446,1.446,0,0,0-1.442-1.442h0a1.446,1.446,0,0,0-1.442,1.442v.711" transform="translate(-15.276)" fill="#0e65f2" stroke="#fff" stroke-miterlimit="10" stroke-width="1.5"/>
    <path id="Path_212" data-name="Path 212" d="M55.881,543.5v.952a2.1,2.1,0,0,0,2.222,1.931h0a2.1,2.1,0,0,0,2.223-1.931V543.5Z" transform="translate(-12.919 -47.588)" fill="#0e65f2" stroke="#fff" stroke-miterlimit="10" stroke-width="1.5"/>
  </g>
</svg>
