<svg xmlns="http://www.w3.org/2000/svg" width="41" height="41" viewBox="0 0 41 41">
  <g id="polkadot" transform="translate(-36 -14)">
    <g id="Polkadot_symbol_color" transform="translate(36 14)" fill="#fff">
      <path d="M 33 40.25 L 8 40.25 C 4.002339839935303 40.25 0.75 36.99766159057617 0.75 33 L 0.75 8 C 0.75 4.002339839935303 4.002339839935303 0.75 8 0.75 L 33 0.75 C 36.99766159057617 0.75 40.25 4.002339839935303 40.25 8 L 40.25 33 C 40.25 36.99766159057617 36.99766159057617 40.25 33 40.25 Z" stroke="none"/>
      <path d="M 8 1.5 C 4.415889739990234 1.5 1.5 4.415889739990234 1.5 8 L 1.5 33 C 1.5 36.58411026000977 4.415889739990234 39.5 8 39.5 L 33 39.5 C 36.58411026000977 39.5 39.5 36.58411026000977 39.5 33 L 39.5 8 C 39.5 4.415889739990234 36.58411026000977 1.5 33 1.5 L 8 1.5 M 8 0 L 33 0 C 37.41828155517578 0 41 3.581718444824219 41 8 L 41 33 C 41 37.41828155517578 37.41828155517578 41 33 41 L 8 41 C 3.581718444824219 41 0 37.41828155517578 0 33 L 0 8 C 0 3.581718444824219 3.581718444824219 0 8 0 Z" stroke="none" fill="#e6007a"/>
    </g>
    <g id="polkadot-new-dot-logo" transform="translate(47 22)">
      <path id="Path_643" data-name="Path 643" d="M9.478,0A9.516,9.516,0,0,0,0,9.478a9.736,9.736,0,0,0,.5,3.079,1.356,1.356,0,0,0,1.667.831,1.349,1.349,0,0,0,.806-1.661A6.254,6.254,0,0,1,2.6,9.31a6.837,6.837,0,1,1,7.249,7.03s-1.33.081-1.992.162a6.88,6.88,0,0,0-.725.144.087.087,0,0,1-.124,0h0a.087.087,0,0,1,0-.106l.206-1.123L8.466,9.8a1.3,1.3,0,1,0-2.541-.544S2.954,23.008,2.954,23.133a1.249,1.249,0,0,0,.9,1.518l.022,0h.069a1.248,1.248,0,0,0,1.521-.9.338.338,0,0,0,.008-.034.321.321,0,0,1,0-.062c.037-.162.412-1.992.412-1.992a3.371,3.371,0,0,1,2.791-2.654c.287-.044,1.492-.125,1.492-.125A9.471,9.471,0,0,0,9.478,0Z" fill="#1e1e1e"/>
      <path id="Path_644" data-name="Path 644" d="M816.568,2182.983a1.579,1.579,0,0,0-1.868,1.224c0,.008,0,.016-.005.024a1.573,1.573,0,0,0,1.2,1.872h.047a1.548,1.548,0,0,0,1.868-1.142c0-.006,0-.013.005-.019v-.087A1.638,1.638,0,0,0,816.568,2182.983Z" transform="translate(-806.516 -2161.13)" fill="#e6007a"/>
    </g>
  </g>
</svg>
