<?xml version="1.0" encoding="utf-8"?>
<!-- Generator: Adobe Illustrator 25.4.1, SVG Export Plug-In . SVG Version: 6.00 Build 0)  -->
<svg version="1.1" id="a2fab10e-fac6-497d-8ec7-92fd5f96fda5"
	 xmlns="http://www.w3.org/2000/svg" xmlns:xlink="http://www.w3.org/1999/xlink" x="0px" y="0px" viewBox="0 0 658.1 437.5"
	 style="enable-background:new 0 0 658.1 437.5;" xml:space="preserve">
<style type="text/css">
	.st0{fill:#A0616A;}
	.st1{fill:#CCCCCC;}
	.st2{fill:#2F2E41;}
	.st3{fill:#3F3D56;}
	.st4{fill:#0E65F2;}
	.st5{fill:#FFFFFF;}
</style>
<g id="f59d61bb-6173-4011-886f-cab752b15cf5">
	<path id="ea601028-2261-4201-a5c6-6d1fee0209f8" class="st0" d="M634.5,234.6c-4.8-2.8-6.5-9-3.7-13.9c0.3-0.5,0.6-1,1-1.5
		L621.3,142l22,1.1l3.5,75.4c4.1,3.9,4.2,10.4,0.3,14.4C643.8,236.3,638.6,237,634.5,234.6L634.5,234.6z"/>
	<path id="bab8e504-63c3-4a02-b094-c521f4d0da0a" class="st1" d="M646.3,144.1c-0.5,0.5-1,0.9-1.7,1.2l-19.8,7.6
		c-2.1,0.8-4.4-0.2-5.3-2.2L602,111.3c-1.7-3.7-2-7.8-0.8-11.6c1.8-5.6,6.4-9.8,12.2-10.9c2.2-0.4,4.4-0.4,6.6,0.1
		c5.3,1.2,9.6,4.9,11.5,10L647,140C647.6,141.4,647.3,143,646.3,144.1z"/>
	<path id="e3cfda6a-f51e-4c96-8af0-12d99ec512c5" class="st0" d="M543.2,423.2h-13.7l-5-53.1l18.7,0.2V423.2z"/>
	<path id="a90fb924-173c-4f4a-b9ae-ede5dff37993" class="st2" d="M519.7,419.3h26.4v16.6h-43C503.1,426.7,510.5,419.3,519.7,419.3
		L519.7,419.3L519.7,419.3z"/>
	<path id="f7d48866-455f-47a0-876b-9c2c9b7d2f2d" class="st0" d="M606.9,423.2h-13.7l-6.5-52.8h20.2L606.9,423.2z"/>
	<path id="ae80d259-143f-4a2f-8815-2d5111ab51c8" class="st2" d="M583.4,419.3h26.4v16.6h-43C566.8,426.7,574.2,419.3,583.4,419.3
		L583.4,419.3L583.4,419.3z"/>
	<path id="b7aaac11-5418-4b5b-a747-2fb27f89cd88" class="st2" d="M608.6,404.4l-21.5-1.6c-2.5-0.2-4.5-2.2-4.7-4.8l-4.8-99.1
		c-0.1-2.2-1.9-3.8-4.1-3.7c-1.8,0.1-3.3,1.4-3.6,3.1l-20,97.6c-0.5,2.5-2.8,4.2-5.3,4l-19.4-1.6c-2.8-0.2-4.8-2.6-4.6-5.4v0
		c0,0,0-0.1,0-0.1l18-180.3c0.3-2.8,2.7-4.8,5.5-4.5c0.2,0,0.4,0,0.6,0.1l68.6,14.9c2.3,0.5,4,2.6,4,5L614,399.5
		c-0.1,2.7-2.3,4.9-5,4.9C608.8,404.4,608.7,404.4,608.6,404.4z"/>
	<circle id="eccc2a78-7d3a-4be1-aa48-fb8bb5d1e30a" class="st0" cx="589.8" cy="34.4" r="27.4"/>
	<path id="a0a57a86-6e42-4b50-b3a1-f8a38df428dd" class="st1" d="M547.2,226.5c-5.3-4.8-8.3-11.7-8.1-18.8
		c0-39.4,34.1-127.5,35.2-130.2c0.1-0.7,1-0.9,5.7-4.1s11.5-3.7,20.3-1.5c1.8,0.5,3.2,1.9,3.6,3.7l1.6,2.3c0.3,1.2,1.1,2.2,2.3,2.7
		c7,3,29.4,16.6,21.8,68c-7.1,47.7-9.9,75.8-10.8,85.7c-0.2,2.4-2.1,4.3-4.5,4.5c-3.4,0.3-9.4,0.7-16.4,0.7
		C581.4,239.5,559,237.3,547.2,226.5z"/>
	<path id="e2026d9f-0f48-4627-b939-bcbd235b248e" class="st0" d="M514.4,211.9c-2.5-5-0.4-11.1,4.6-13.6c0.5-0.3,1.1-0.5,1.7-0.6
		l34.3-70l17.7,13.2l-39.1,64.5c1.2,5.5-2.3,10.9-7.8,12.1C521.2,218.4,516.5,216.1,514.4,211.9L514.4,211.9z"/>
	<path id="aa5178ad-b05d-4950-85b1-a624717fe499" class="st1" d="M574.6,143.3c-0.7,0.2-1.4,0.2-2.1,0.1l-20.6-4.8
		c-2.2-0.5-3.5-2.6-3.2-4.8l7.4-42.5c0.6-4,2.7-7.6,5.8-10.1c4.6-3.7,10.8-4.5,16.2-2.3c2.1,0.8,3.9,2.1,5.4,3.7
		c3.7,3.9,5.2,9.4,4,14.7l-10,42.9C577.2,141.8,576.1,142.9,574.6,143.3L574.6,143.3z"/>
	<path id="f1455aca-238f-491a-b535-1c1a045e39f4" class="st2" d="M583.3,59.2c-2.7-2.8-3.9-6.7-3.2-10.5c1-5,1.5-8.3,1.6-9.5l0,0
		c0.4-4.1-3.8-7.4-7.8-7.9c-0.2,0-0.3,0-0.4,0c0.1,0.1,0.2,0.2,0.3,0.3c0.8,0.7,1.7,1.6,1.5,2.6c-0.1,0.6-0.7,1-1.6,1.2
		c-6.4,1.8-11.3,0.1-15.4-5.2c-1.2-1.5-2-3.3-2.4-5.1c-1.5-7.3,2.5-13.6,6.1-17.5c3-3.3,7.8-7.2,13.8-7.5c4.7-0.3,10.3,2.5,12,7.3
		c1.6-2.4,4.2-3.9,7.1-4c3.2-0.1,6.4,0.8,9.1,2.5c13.3,7.6,19,25.8,12.5,39.6c-4.1,8.7-13,15.2-23.2,16.9c-0.6,0.1-1.3,0.2-1.9,0.2
		C588.4,62.6,585.5,61.4,583.3,59.2L583.3,59.2z"/>
</g>
<path id="f152a38b-6c6f-456c-96ce-4c801960ccf2" class="st3" d="M185.8,195.6c-1.2-2.8-3.9-4.6-7-4.6H40.1c-4.2,0-7.5,3.4-7.5,7.5
	v175.5c0,4.2,3.4,7.5,7.5,7.5h138.7c4.2,0,7.5-3.4,7.5-7.5V198.4C186.4,197.5,186.2,196.5,185.8,195.6L185.8,195.6z M184.7,373.9
	c0,3.2-2.6,5.8-5.8,5.8H40.1c-3.2,0-5.8-2.6-5.9-5.8V198.4c0-3.2,2.6-5.8,5.9-5.9h138.7c2.4,0,4.5,1.5,5.4,3.7
	c0.1,0.2,0.2,0.4,0.2,0.7c0.1,0.5,0.2,1,0.2,1.5L184.7,373.9z"/>
<path id="fabca9b7-6499-499c-b0ba-e512eedfa0e6" class="st3" d="M156.8,232.4H115c-1.8,0-3.3-1.5-3.3-3.3c0-1.8,1.5-3.3,3.3-3.3
	h41.8c1.8,0,3.3,1.5,3.3,3.3C160.2,230.9,158.7,232.4,156.8,232.4L156.8,232.4L156.8,232.4z"/>
<path id="b1b2178d-f6c7-4a19-857a-cc93cc70df69" class="st3" d="M156.8,249.9H115c-1.8,0-3.3-1.5-3.3-3.3c0-1.8,1.5-3.3,3.3-3.3
	h41.8c1.8,0,3.3,1.5,3.3,3.3C160.2,248.4,158.7,249.9,156.8,249.9L156.8,249.9L156.8,249.9z"/>
<path id="bd84b5e9-e9c5-4886-bcfd-3c769a5bd20c" class="st4" d="M93.6,259.9H63.1c-2.1,0-3.8-1.7-3.8-3.8v-36c0-2.1,1.7-3.8,3.8-3.8
	h30.5c2.1,0,3.8,1.7,3.8,3.8v36C97.4,258.2,95.7,259.9,93.6,259.9z"/>
<path id="ad20b6ae-6256-4ad3-9ba5-bff6ef303c78" class="st1" d="M156.5,285.8H62.1c-1.8,0-3.3-1.5-3.3-3.3s1.5-3.3,3.3-3.3h94.4
	c1.8,0,3.3,1.5,3.3,3.3S158.4,285.8,156.5,285.8z"/>
<path id="f5b31b5a-d389-4394-a0c3-430493f21651" class="st1" d="M156.5,303.4H62.1c-1.8,0-3.3-1.5-3.3-3.4c0-1.8,1.5-3.3,3.3-3.3
	h94.4c1.8,0,3.3,1.5,3.4,3.3C159.9,301.9,158.4,303.4,156.5,303.4C156.5,303.4,156.5,303.4,156.5,303.4z"/>
<path id="e6b00d4f-f233-434b-82e7-f520ed55a592" class="st1" d="M156.5,320.9H62.1c-1.8,0-3.3-1.5-3.3-3.4c0-1.8,1.5-3.3,3.3-3.3
	h94.4c1.8,0,3.3,1.5,3.4,3.3C159.9,319.4,158.4,320.9,156.5,320.9C156.5,320.9,156.5,320.9,156.5,320.9z"/>
<path id="f83e6214-6629-4e95-ad35-3c9b0c78a3d6" class="st1" d="M156.5,338.5H62.1c-1.8,0-3.3-1.5-3.3-3.4c0-1.8,1.5-3.3,3.3-3.3
	h94.4c1.8,0,3.3,1.5,3.4,3.3C159.9,337,158.4,338.5,156.5,338.5C156.5,338.5,156.5,338.5,156.5,338.5z"/>
<path id="b83f14e7-a754-4235-a578-aebf681d4a1c" class="st1" d="M156.5,356H62.1c-1.8,0-3.3-1.5-3.3-3.4c0-1.8,1.5-3.3,3.3-3.3h94.4
	c1.8,0,3.3,1.5,3.4,3.3C159.9,354.5,158.4,356,156.5,356C156.5,356,156.5,356,156.5,356z"/>
<path id="a38c097c-1c01-4356-80b1-56a89c2c58fa" class="st3" d="M462.1,437.5h195c0.6,0,1-0.4,1-1s-0.4-1-1-1h-195c-0.6,0-1,0.4-1,1
	S461.6,437.5,462.1,437.5z"/>
<circle id="af1d3ae0-b86a-44f8-8168-f2f371efc620" class="st4" cx="111.8" cy="116.4" r="32.3"/>
<path id="b4906b3b-71df-4c7e-84d8-52e6769e6d26" class="st5" d="M108.6,128.7c-0.7,0-1.4-0.2-2-0.7l0,0l-7.6-5.8
	c-1.5-1.1-1.8-3.2-0.6-4.7c1.1-1.5,3.2-1.8,4.7-0.6c0,0,0,0,0,0l4.9,3.8l11.6-15.1c1.1-1.5,3.2-1.8,4.7-0.6l0,0l-0.1,0.1l0.1-0.1
	c1.5,1.1,1.8,3.2,0.6,4.7l-13.6,17.8C110.7,128.2,109.7,128.7,108.6,128.7L108.6,128.7z"/>
<ellipse id="b1c5fac5-a790-403a-b8d0-31ae0bc4b4ba" transform="matrix(0.1602 -0.9871 0.9871 0.1602 189.5075 382.2844)" class="st1" cx="319.4" cy="79.8" rx="21.9" ry="21.9"/>
<path id="a5ae1e6c-de0b-426c-a811-1990f7b7ccda" class="st5" d="M317.2,88.1c-0.5,0-1-0.2-1.4-0.5l0,0l-5.1-3.9
	c-1-0.8-1.1-2.2-0.4-3.2c0.8-1,2.1-1.1,3.1-0.4l3.3,2.6l7.9-10.3c0.8-1,2.2-1.2,3.2-0.4l0,0l0,0.1l0-0.1c1,0.8,1.2,2.2,0.4,3.2
	l-9.2,12.1C318.6,87.8,318,88.1,317.2,88.1L317.2,88.1z"/>
<path id="e481f25f-f0ef-423d-9e4a-b2d79b6febf5" class="st1" d="M380.8,131c-0.9-2.2-3.1-3.6-5.5-3.7H266.2c-3.3,0-5.9,2.6-5.9,5.9
	v138.1c0,3.3,2.6,5.9,5.9,5.9h109.2c3.3,0,5.9-2.7,5.9-5.9V133.3C381.3,132.5,381.1,131.7,380.8,131z M380,271.4
	c0,2.5-2.1,4.6-4.6,4.6H266.2c-2.5,0-4.6-2.1-4.6-4.6l0,0V133.3c0-2.5,2.1-4.6,4.6-4.6h109.2c1.9,0,3.6,1.2,4.3,2.9
	c0.1,0.2,0.1,0.3,0.2,0.5c0.1,0.4,0.2,0.8,0.2,1.2L380,271.4z"/>
<path id="a5b052e7-0a6d-48d5-ba9e-291ff1ca3bfd" class="st1" d="M358.1,160h-32.9c-1.5,0-2.6-1.2-2.6-2.6s1.2-2.6,2.6-2.6h32.9
	c1.5,0,2.6,1.2,2.6,2.6C360.7,158.8,359.5,160,358.1,160L358.1,160z"/>
<path id="bd247f09-cb3d-4df5-9c12-787ea9e72b07" class="st1" d="M358.1,173.8h-32.9c-1.5,0-2.6-1.2-2.6-2.6c0-1.4,1.2-2.6,2.6-2.6
	h32.9c1.5,0,2.6,1.2,2.6,2.6C360.7,172.6,359.5,173.8,358.1,173.8L358.1,173.8z"/>
<path id="b3d7a89f-9ffc-4079-aa15-40ad611f9a98" class="st1" d="M308.3,181.7h-24c-1.6,0-3-1.3-3-3v-28.4c0-1.6,1.3-3,3-3h24
	c1.6,0,3,1.3,3,3v28.4C311.3,180.3,309.9,181.6,308.3,181.7z"/>
<path id="e1bf4aca-fc8d-43da-a727-289201e2eac7" class="st1" d="M357.8,202.1h-74.3c-1.5,0-2.6-1.2-2.6-2.6c0-1.4,1.2-2.6,2.6-2.6
	h74.3c1.5,0,2.6,1.2,2.6,2.6C360.5,200.9,359.3,202.1,357.8,202.1z"/>
<path id="b286f981-abb8-47cd-9209-f09770ef33ad" class="st1" d="M357.8,215.9h-74.3c-1.5,0-2.6-1.2-2.6-2.6s1.2-2.6,2.6-2.6l0,0
	h74.3c1.5,0,2.6,1.2,2.6,2.6S359.3,215.9,357.8,215.9z"/>
<path id="ad15bc08-a918-4115-a327-9a31c97a6753" class="st1" d="M357.8,229.7h-74.3c-1.5,0-2.6-1.2-2.6-2.6s1.2-2.6,2.6-2.6l0,0
	h74.3c1.5,0,2.6,1.2,2.6,2.6S359.3,229.7,357.8,229.7z"/>
<path id="a508ff04-1989-4f94-915f-90cf16933556" class="st1" d="M357.8,243.5h-74.3c-1.5,0-2.6-1.2-2.6-2.6c0-1.4,1.2-2.6,2.6-2.6
	h74.3c1.5,0,2.6,1.2,2.6,2.6C360.5,242.3,359.3,243.5,357.8,243.5z"/>
<path id="e65b0501-2d31-4d85-b27f-ea92835ed026" class="st1" d="M357.8,257.3h-74.3c-1.5,0-2.6-1.2-2.6-2.6c0-1.5,1.2-2.6,2.6-2.6
	l0,0h74.3c1.5,0,2.6,1.2,2.6,2.6C360.5,256.1,359.3,257.3,357.8,257.3z"/>
<path id="a3e956aa-8abe-48aa-ba4a-17518f20fda0" class="st1" d="M242.9,277.9h153.4c0.4,0,0.8-0.4,0.8-0.8c0-0.4-0.4-0.8-0.8-0.8
	H242.9c-0.4,0-0.8,0.3-0.8,0.8C242.1,277.5,242.5,277.9,242.9,277.9L242.9,277.9L242.9,277.9z"/>
<path id="b01c4841-6b77-41d3-9bc6-bba4643c130f" class="st3" d="M11.1,382.1h195c0.6,0,1-0.4,1-1s-0.4-1-1-1h-195c-0.6,0-1,0.4-1,1
	S10.6,382.1,11.1,382.1z"/>
</svg>
