<svg xmlns="http://www.w3.org/2000/svg" width="232.755" height="169.549" viewBox="0 0 232.755 169.549"><defs><style>.a{fill:#0e65f2;}.b{fill:#f2f2f2;}.c{fill:#e6e6e6;}.d{fill:#fff;}.e{fill:#3f3d56;}.f{fill:#ffb7b7;}.g{opacity:0.2;}.h{fill:#2f2e41;}.i{fill:#cbcbcb;}</style></defs><path class="a" d="M756.813,634.92a9.032,9.032,0,0,1-8.722-1.536c-3.055-2.564-4.013-6.787-4.792-10.7l-2.3-11.569,4.826,3.323c3.471,2.39,7.019,4.856,9.422,8.317s3.451,8.186,1.521,11.931" transform="translate(-587.161 -483.541)"/><path class="b" d="M773.966,677.006c.607-4.425,1.232-8.907.805-13.38a21.046,21.046,0,0,0-4.057-11.033,18.355,18.355,0,0,0-4.709-4.267c-.471-.3-.9.449-.435.745a17.448,17.448,0,0,1,6.9,8.327,27.969,27.969,0,0,1,1.485,12.048c-.156,2.455-.489,4.894-.823,7.33a.447.447,0,0,0,.3.531.434.434,0,0,0,.531-.3Z" transform="translate(-605.06 -510.815)"/><path class="c" d="M726.321,709.851a6.649,6.649,0,0,1-5.793,2.991c-2.933-.139-5.378-2.186-7.578-4.129l-6.51-5.747,4.308-.206c3.1-.148,6.276-.288,9.227.669s5.672,3.255,6.212,6.309" transform="translate(-561.787 -550.761)"/><path class="b" d="M754.624,729.14c-2.924-5.174-6.316-10.924-12.376-12.762a13.81,13.81,0,0,0-5.205-.538c-.553.048-.415.9.137.852a12.83,12.83,0,0,1,8.307,2.2,21.591,21.591,0,0,1,5.71,6.161c.946,1.44,1.792,2.941,2.639,4.44C754.106,729.971,754.9,729.625,754.624,729.14Z" transform="translate(-584 -560.406)"/><circle class="d" cx="15.875" cy="15.875" r="15.875" transform="translate(89.063 76.836)"/><path class="e" d="M512.32,451.4a16.141,16.141,0,1,1,16.141-16.141A16.141,16.141,0,0,1,512.32,451.4Zm0-31.751a15.61,15.61,0,1,0,15.61,15.61A15.61,15.61,0,0,0,512.32,419.648Z" transform="translate(-407.382 -342.547)"/><path class="f" d="M524.188,471.517l-.106-.046c-.061-.026-1.484-.669-.972-3.327l.009-.029.19-.423a9.19,9.19,0,0,0,.8-3.964c-1.144-.026-7.005-.193-7.691-.83a1.215,1.215,0,0,1-.388-.818l-.035-.559a1.256,1.256,0,0,1,1.254-1.334h.338l-.239-.273a1.2,1.2,0,0,1-.3-.79v-.462a1.2,1.2,0,0,1,.617-1.048l.192-.107-.11-.11a1.2,1.2,0,0,1,.633-2.028l1.255-.228a1.916,1.916,0,0,1,1.694-1.793l3.587-.414a21.344,21.344,0,0,1,5.624-.249l.549.048,5.55-.662v7.419l-5.133.7-4.322,5.01a31.466,31.466,0,0,1-2.84,6.056Z" transform="translate(-421.929 -366.748)"/><path class="g" d="M382.495,386.7l-.243-.109.834-1.865.977.3-.078.254-.753-.232Z" transform="translate(-280.706 -282.525)"/><path class="f" d="M485.791,371.06l-1.7-23.575.323-7.868-6.623,1.474,2.44,30.891a3.452,3.452,0,1,0,5.559-.921Z" transform="translate(-393.879 -284.166)"/><path class="f" d="M319.484,344.969l-.421-7.9-4.25-3.453-2.462,7.314L298.578,359.3a3.452,3.452,0,1,0,4,3.406c0-.046-.005-.092-.007-.138Z" transform="translate(-260.14 -279.76)"/><path class="a" d="M359.5,287.362,349.124,276.29l7.7-16.117a2.716,2.716,0,0,1,1.586-1.414,2.674,2.674,0,0,1,2.087.15l.076.038Z" transform="translate(-299.392 -224.682)"/><path class="a" d="M470.231,282.77l-1.843-10.8.007-.027,4.357-17.127.408-.047a4.756,4.756,0,0,1,5.179,3.765l4.105,20.44Z" transform="translate(-386.974 -221.834)"/><path class="h" d="M423.209,179.6H401.159v-9.962a11.025,11.025,0,1,1,22.049,0Z" transform="translate(-337.605 -151.249)"/><path class="f" d="M379.563,534.05l-3.732,3.141-13.89-12.9,5.508-4.635Z" transform="translate(-265.791 -381.608)"/><path class="h" d="M567.646,701.955l-12.032,10.127-.128-.152a6.122,6.122,0,0,1,.741-8.625h0l7.349-6.185Z" transform="translate(-449.878 -546.697)"/><path class="f" d="M197.828,567.758H192.95l-2.32-18.813h7.2Z" transform="translate(-139.989 -403.116)"/><path class="h" d="M340.853,750.971H325.126v-.2a6.121,6.121,0,0,1,6.121-6.121h9.606Z" transform="translate(-281.77 -581.601)"/><path class="h" d="M299.123,381.069l2.428-27.789a178.519,178.519,0,0,1,8.633-41.343l10.166-30.218.888-7.037a10.267,10.267,0,0,1,.49-10.343l-.353-6.99c-.007-.138-.017-.27-.026-.4-.1-1.373-.027-2.165,2.653-2.461l22.238-.686c2.814-.012,4.52.456,5.213,1.454.8,1.148.165,2.811-.447,4.42-.064.167-.127.335-.19.5l-8.808,23.651c4.263,8.24,3.441,20.843,3.432,20.969l.312,3.727,32.334,52.84-19.118,17.851-.085-.138L328.087,329l-.265,50.474-.125.007Z" transform="translate(-262.675 -221.149)"/><circle class="f" cx="9.011" cy="9.011" r="9.011" transform="translate(62.096 23.227) rotate(-61.337)"/><circle class="h" cx="5.998" cy="5.998" r="5.998" transform="translate(72.677 0)"/><path class="h" d="M427.209,175.774H405.159v-.133a11.025,11.025,0,1,1,22.049,0Z" transform="translate(-340.542 -155.655)"/><circle class="d" cx="15.875" cy="15.875" r="15.875" transform="translate(13.617 54.521)"/><path class="e" d="M228.32,367.4a16.141,16.141,0,1,1,16.141-16.141A16.141,16.141,0,0,1,228.32,367.4Zm0-31.751a15.61,15.61,0,1,0,15.61,15.61,15.61,15.61,0,0,0-15.61-15.61Z" transform="translate(-198.828 -280.861)"/><path class="f" d="M236.159,369.93v-7.419l5.132-.7,4.322-5.01a31.471,31.471,0,0,1,2.84-6.056l.154-.254.106.046c.061.026,1.483.669.972,3.327l-.009.029-.189.423a9.187,9.187,0,0,0-.8,3.964c1.144.026,7.005.193,7.691.83a1.215,1.215,0,0,1,.388.818l.035.559a1.256,1.256,0,0,1-1.254,1.334h-.337l.239.273a1.2,1.2,0,0,1,.3.79v.462a1.2,1.2,0,0,1-.617,1.048l-.192.107.11.11a1.2,1.2,0,0,1-.633,2.028l-1.255.228a1.916,1.916,0,0,1-1.694,1.793l-3.587.414a21.327,21.327,0,0,1-5.624.249l-.549-.049Z" transform="translate(-216.437 -292.148)"/><path class="g" d="M117.945,223.8l-.977-.3.078-.254.753.232.739-1.65.243.108Z" transform="translate(-85.895 -162.899)"/><path class="i" d="M394.409,767.648H162.185a.266.266,0,0,1,0-.531H394.409a.266.266,0,0,1,0,.531Z" transform="translate(-161.919 -598.099)"/></svg>