<svg xmlns="http://www.w3.org/2000/svg" width="383.054" height="203.561" viewBox="0 0 383.054 203.561">
    <defs>
        <style>.a{fill:#e6e6e6;}.b{fill:#0e65f2;}.c{fill:#ffb8b8;}.d{fill:#2f2e41;}.e{fill:#ccc;}.f{fill:#fff;}</style>
    </defs>
    <g transform="translate(0)">
        <path class="a"
              d="M758.231,433.877H544.94a2.482,2.482,0,0,1-2.479-2.479V233.321a2.482,2.482,0,0,1,2.479-2.479H758.231a2.482,2.482,0,0,1,2.479,2.479V431.4a2.482,2.482,0,0,1-2.479,2.479ZM544.94,231.831a1.489,1.489,0,0,0-1.486,1.486V431.4a1.489,1.489,0,0,0,1.486,1.486H758.231a1.489,1.489,0,0,0,1.486-1.486V233.321a1.489,1.489,0,0,0-1.486-1.486Z"
              transform="translate(-377.656 -230.842)"/>
        <path class="a" d="M762.87,341.671a1.683,1.683,0,1,0,0,3.366h92.352a1.683,1.683,0,0,0,0-3.366Z"
              transform="translate(-494.802 -290.2)"/>
        <path class="a" d="M762.87,363.417a1.683,1.683,0,1,0,0,3.366h47.147a1.683,1.683,0,1,0,0-3.366Z"
              transform="translate(-494.802 -301.847)"/>
        <path class="a" d="M589.063,468.671a1.683,1.683,0,1,0,0,3.366h173.16a1.683,1.683,0,0,0,0-3.366Z"
              transform="translate(-401.714 -358.219)"/>
        <path class="a" d="M589.063,490.417a1.683,1.683,0,0,0,0,3.366H717.019a1.683,1.683,0,1,0,0-3.366Z"
              transform="translate(-401.714 -369.866)"/>
        <path class="a" d="M589.063,511.671a1.683,1.683,0,0,0,0,3.366h173.16a1.683,1.683,0,0,0,0-3.366Z"
              transform="translate(-401.714 -381.25)"/>
        <path class="a" d="M589.063,533.417a1.683,1.683,0,1,0,0,3.366H717.019a1.683,1.683,0,1,0,0-3.366Z"
              transform="translate(-401.714 -392.896)"/>
        <path class="b"
              d="M557.3,344.552H423.428a2.482,2.482,0,0,1-2.479-2.479V283.321a2.482,2.482,0,0,1,2.479-2.479H557.3a2.482,2.482,0,0,1,2.479,2.479v58.752A2.482,2.482,0,0,1,557.3,344.552Z"
              transform="translate(-312.576 -257.621)"/>
        <path class="b"
              d="M900.174,602.931H849.428a2.482,2.482,0,0,1-2.479-2.479v-8.13a2.482,2.482,0,0,1,2.479-2.479h50.746a2.482,2.482,0,0,1,2.479,2.479v8.13A2.482,2.482,0,0,1,900.174,602.931Z"
              transform="translate(-540.735 -423.117)"/>
        <path class="c"
              d="M311.528,386.362a5.154,5.154,0,0,1-1.434-6.814,4.25,4.25,0,0,1,.468-.586l.14-43.4,6.452,1.2.283,42.689a5.064,5.064,0,0,1,.576,6.008A4.443,4.443,0,0,1,311.528,386.362Z"
              transform="translate(-252.809 -286.926)"/>
        <path class="c" d="M198.682,393.714h6.651l3.165-25.655h-9.817Z" transform="translate(-106.41 -197.126)"/>
        <path class="d" d="M382.626,649.466h13.1a8.348,8.348,0,0,1,8.348,8.347v.272H382.626Z"
              transform="translate(-292.051 -455.05)"/>
        <path class="c" d="M65.5,393.714h6.652l3.164-25.655H65.5Z" transform="translate(-35.083 -197.126)"/>
        <path class="d" d="M249.449,649.466h13.1a8.348,8.348,0,0,1,8.348,8.347v.272H249.45Z"
              transform="translate(-220.724 -455.05)"/>
        <path class="d"
              d="M311.587,509.542l-.558-3.345a2.652,2.652,0,0,1-1.379-1.107,5.082,5.082,0,0,1-.284-3.957l-4.488-37.9-23.43-24.309-15.031,36.254-5.95,28.689v4.145l-11.88,1.525.541-3.907a2.275,2.275,0,0,1-1.079-.961c-.683-1.136-.673-2.9.028-5.233l.03-.1-.039-.349c-.027-.245.151-23.678,7.118-35.289l6.977-35.25c-.181-.5-1.076-3.387.565-8.271,1.619-4.82,6.147-12.585,18.524-22.2l.042-.033.053-.011c.137-.028,13.788-2.742,20.848,6.49l.048.062v.079c0,.571-.012,13.854-1.062,16.8l16.753,30.8c.326.346,3.255,3.728,2.215,12.62l2.706,30.312c.31.591,3.111,6.159.023,8.362l.554,3.827Z"
              transform="translate(-219.704 -320.12)"/>
        <path class="b"
              d="M313.64,336.876a10.5,10.5,0,0,1-9.885-6.237l-.05-.1,6.3-13.363a7.327,7.327,0,0,1,13.388,5.947l-5.45,13.066-.095.035A13.63,13.63,0,0,1,313.64,336.876Z"
              transform="translate(-249.782 -274.83)"/>
        <path class="b"
              d="M339.779,364.326l-19.873-9.384,2.732-33.327,4.98-6.087.965-.207a25.394,25.394,0,0,1,13.343.739l.095.032,8.18,17.451c.051.087,5.951,10.5-2.2,15.994Z"
              transform="translate(-258.459 -275.786)"/>
        <path class="c"
              d="M386.144,381.224a4.885,4.885,0,0,0-.685.351L364.518,372l-.537-5.569-8.51-.288-.007,9.951a3.715,3.715,0,0,0,2.673,3.568l25.147,7.349a4.874,4.874,0,1,0,2.861-5.784Z"
              transform="translate(-277.503 -303.305)"/>
        <path class="b"
              d="M357.441,343.48a10.6,10.6,0,0,1-7.664-3.41l-.08-.08,1.747-14.672a7.327,7.327,0,0,1,14.583,1.4l-1.031,14.119-.079.063A13.32,13.32,0,0,1,357.441,343.48Z"
              transform="translate(-274.415 -277.982)"/>
        <circle class="c" cx="13.325" cy="13.325" r="13.325" transform="translate(59.635 27.041) rotate(-61.337)"/>
        <path class="d"
              d="M288.148,248.832a11.279,11.279,0,0,0-7.426-8.338,16.079,16.079,0,0,0-11.427.622,18.969,18.969,0,0,0-1.757.845c-1.316-2.509-4.544-3.964-7.5-3.807-3.566.19-6.787,2.077-9.884,3.855s-6.421,3.548-9.991,3.465c-6.452-.15-11.252-6.131-17.457-7.909a13.961,13.961,0,0,0-15.365,21.308c2.647-4.744,8.864-6.346,14.258-5.7s10.421,3.01,15.706,4.27,11.405,1.205,15.5-2.366c2.322-2.026,3.685-4.922,5.707-7.248a9.415,9.415,0,0,1,5.3-3.214,16.094,16.094,0,0,0-4.355,6.461,13.415,13.415,0,0,0,2.566,13.455c3.547,3.734,9.114,4.729,14.263,4.669l.108-.109c-1.577-2.36-2.821-5.633-1.085-7.878,1.714-2.217,5.093-1.89,7.718-2.871C286.689,256.972,288.809,252.678,288.148,248.832Z"
              transform="translate(-196.866 -234.152)"/>
        <path class="e" d="M314.846,668.087H188.061a.464.464,0,1,1,0-.929H314.846a.464.464,0,0,1,0,.929Z"
              transform="translate(-187.596 -464.526)"/>
        <path class="f"
              d="M556.274,325.212c-.581,0-1.052.757-1.051,1.686s.471,1.678,1.051,1.68h49.632c.581,0,1.052-.757,1.051-1.686s-.471-1.678-1.051-1.68Z"
              transform="translate(-384.492 -281.385)"/>
        <path class="f"
              d="M556.274,346.212c-.581,0-1.052.757-1.051,1.686s.471,1.678,1.051,1.68h49.632c.581,0,1.052-.757,1.051-1.686s-.471-1.678-1.051-1.68Z"
              transform="translate(-384.492 -292.632)"/>
        <path class="f"
              d="M556.274,366.958c-.581,0-1.052.757-1.051,1.686s.471,1.678,1.051,1.68h21.357c.581,0,1.052-.757,1.051-1.686s-.471-1.678-1.051-1.68Z"
              transform="translate(-384.492 -303.743)"/>
        <circle class="f" cx="13.468" cy="13.468" r="13.468" transform="translate(133.114 41.608)"/>
    </g>
</svg>
