<svg xmlns="http://www.w3.org/2000/svg" width="24.215" height="18.931" viewBox="0 0 24.215 18.931">
  <g id="tippers" transform="translate(-582.5 -209.625)">
    <g id="Layer_19" data-name="Layer 19" transform="translate(582.5 213.257)">
      <path id="Path_781" data-name="Path 781" d="M12.08,9.16a4.08,4.08,0,1,1,4.08-4.08A4.08,4.08,0,0,1,12.08,9.16Zm0-7.14a3.06,3.06,0,1,0,3.06,3.06A3.06,3.06,0,0,0,12.08,2.02Z" transform="translate(-5.96 -1)" fill="#101820"/>
      <path id="Path_782" data-name="Path 782" d="M13.69,24.616H6.55A2.55,2.55,0,0,1,4,22.066v-2.04a.51.51,0,0,1,.25-.439l2.55-1.53a.51.51,0,0,1,.51.877L5.02,20.317v1.749A1.53,1.53,0,0,0,6.55,23.6h7.14C14.534,23.6,15.1,24.616,13.69,24.616Z" transform="translate(-4 -9.317)" fill="#101820"/>
    </g>
    <g id="Layer_19-2" data-name="Layer 19" transform="translate(594.476 209.625)">
      <path id="Path_781-2" data-name="Path 781" d="M12.08,9.16a4.08,4.08,0,1,1,4.08-4.08A4.08,4.08,0,0,1,12.08,9.16Zm0-7.14a3.06,3.06,0,1,0,3.06,3.06A3.06,3.06,0,0,0,12.08,2.02Z" transform="translate(-5.96 -1)" fill="#101820"/>
      <path id="Path_782-2" data-name="Path 782" d="M13.69,24.6H6.55A2.55,2.55,0,0,1,4,22.055v-2.04a.51.51,0,0,1,.25-.439l2.55-1.53a.51.51,0,0,1,.51.877L5.02,20.305v1.749a1.53,1.53,0,0,0,1.53,1.53h7.14a1.53,1.53,0,0,0,1.53-1.53V20.305l-2.3-1.382a.51.51,0,1,1,.51-.877l2.55,1.53a.51.51,0,0,1,.26.439v2.04A2.55,2.55,0,0,1,13.69,24.6Z" transform="translate(-4 -9.305)" fill="#101820"/>
    </g>
  </g>
</svg>
