<svg xmlns="http://www.w3.org/2000/svg" viewBox="0 0 141.59 32.54"><defs><style>.cls-1{fill:#231f20;}</style></defs><g id="Layer_2" data-name="Layer 2"><g id="Layer_1-2" data-name="Layer 1"><path d="M40,9.42V.24h3.31A5,5,0,0,1,44.7.41a2.52,2.52,0,0,1,.94.47,1.91,1.91,0,0,1,.53.73,2.61,2.61,0,0,1,.16.94,2.3,2.3,0,0,1-.13.83,1.68,1.68,0,0,1-.33.59,1.47,1.47,0,0,1-.46.37,1.91,1.91,0,0,1-.54.18v0a2.06,2.06,0,0,1,1.42.75,2.46,2.46,0,0,1,.46,1.53A2.94,2.94,0,0,1,46.53,8a2.08,2.08,0,0,1-.62.8,2.38,2.38,0,0,1-.95.44,5.06,5.06,0,0,1-1.2.14Zm.87-5.13h2.19a5.07,5.07,0,0,0,1.13-.11,1.89,1.89,0,0,0,.74-.34,1.21,1.21,0,0,0,.4-.55,2.09,2.09,0,0,0,.12-.74,1.59,1.59,0,0,0-.14-.73,1.09,1.09,0,0,0-.44-.49,2.5,2.5,0,0,0-.8-.27A8,8,0,0,0,42.88,1h-2Zm0,4.39h2.2a8.94,8.94,0,0,0,1.24-.07,2.29,2.29,0,0,0,.88-.26,1.21,1.21,0,0,0,.51-.56,2.17,2.17,0,0,0,.17-1,1.88,1.88,0,0,0-.19-.92,1.3,1.3,0,0,0-.54-.55,2.9,2.9,0,0,0-.86-.26A9.16,9.16,0,0,0,43.18,5h-2.3Z"/><path d="M60.57,5.25V9.42l-.86,0V.24H63.3a4,4,0,0,1,2.32.57,2.11,2.11,0,0,1,.8,1.84A2.35,2.35,0,0,1,66.07,4a2.64,2.64,0,0,1-1.14.86,1.48,1.48,0,0,1,.64.41,1.74,1.74,0,0,1,.34.61,2.87,2.87,0,0,1,.15.73c0,.25,0,.5,0,.74s0,.63.05.86a4.65,4.65,0,0,0,.08.56,1.06,1.06,0,0,0,.1.34.77.77,0,0,0,.16.19V9.4l-1,0a1.86,1.86,0,0,1-.2-.64c0-.27-.06-.56-.09-.86s0-.58,0-.86a4,4,0,0,0-.07-.69,1.33,1.33,0,0,0-.25-.59,1.12,1.12,0,0,0-.41-.34,1.54,1.54,0,0,0-.54-.15,4.21,4.21,0,0,0-.62,0Zm2.71-.74a3.57,3.57,0,0,0,.89-.1,2,2,0,0,0,.72-.33,1.56,1.56,0,0,0,.49-.56,1.78,1.78,0,0,0,.18-.83,1.74,1.74,0,0,0-.19-.84,1.32,1.32,0,0,0-.5-.52,2,2,0,0,0-.71-.27A4.49,4.49,0,0,0,63.33,1H60.57V4.51Z"/><path d="M79.74,9.42V.24h.86V9.42Z"/><path d="M98.08,5.41V4.68H102V9.42h-.74V7.85a4.11,4.11,0,0,1-.56.74,3.11,3.11,0,0,1-.72.58,3.84,3.84,0,0,1-.94.36,5.54,5.54,0,0,1-1.21.13,4.09,4.09,0,0,1-1.61-.31A3.46,3.46,0,0,1,95,8.44a4.18,4.18,0,0,1-.83-1.52,6.91,6.91,0,0,1-.3-2.14,6.68,6.68,0,0,1,.25-1.88,4.3,4.3,0,0,1,.78-1.52,3.82,3.82,0,0,1,1.33-1A4.38,4.38,0,0,1,98.07,0a5,5,0,0,1,1.36.18,3.69,3.69,0,0,1,1.13.54,3.18,3.18,0,0,1,.85.9,3.84,3.84,0,0,1,.49,1.28H101a2.46,2.46,0,0,0-.39-.91A2.7,2.7,0,0,0,99.11.89a3.19,3.19,0,0,0-1-.15,3.38,3.38,0,0,0-1.55.32,2.83,2.83,0,0,0-1.07.9,3.8,3.8,0,0,0-.62,1.38,7.64,7.64,0,0,0-.2,1.78,4.59,4.59,0,0,0,.23,1.45,3.36,3.36,0,0,0,.65,1.21,3,3,0,0,0,1,.83A3,3,0,0,0,98,8.92a3.42,3.42,0,0,0,.76-.09,2.72,2.72,0,0,0,.77-.27,3.18,3.18,0,0,0,.69-.5,2.67,2.67,0,0,0,.54-.75,3,3,0,0,0,.3-.9,6.39,6.39,0,0,0,.1-1Z"/><path d="M115.29,9.42V.24h.87V4.18h5.43V.24h.86V9.42h-.86V4.92h-5.43v4.5Z"/><path d="M134.89.24h6.68V1h-2.91V9.42h-.87V1h-2.9Z"/><path d="M50.88,18.75v2.38h-4V32.19H44V21.13H40V18.75Z"/><path d="M61.14,19.09A3.53,3.53,0,0,1,62.4,20a4.17,4.17,0,0,1,.67,1.13,3.74,3.74,0,0,1,.25,1.42,4,4,0,0,1-.48,1.88,2.71,2.71,0,0,1-1.6,1.31,2.57,2.57,0,0,1,1.32,1.06A4.42,4.42,0,0,1,63,28.94v.9A6.83,6.83,0,0,0,63,31.09a1.13,1.13,0,0,0,.52.77v.33h-3.1a5.34,5.34,0,0,1-.18-.72,5.5,5.5,0,0,1-.12-1.16l0-1.25a2.51,2.51,0,0,0-.45-1.71,2.22,2.22,0,0,0-1.6-.43H55.33v5.27H52.58V18.75H59A5.83,5.83,0,0,1,61.14,19.09Zm-5.81,2v3.61h3a3.33,3.33,0,0,0,1.35-.21A1.52,1.52,0,0,0,60.5,23a1.71,1.71,0,0,0-.77-1.64,2.76,2.76,0,0,0-1.3-.24Z"/><path d="M76,21.13H68.84V24h6.53v2.34H68.84v3.46h7.45v2.41H66.09V18.75H76Z"/><path d="M82.32,18.75H85.5l4.76,13.44H87.21l-.89-2.76H81.37l-.91,2.76H77.52Zm-.18,8.36h3.44l-1.7-5.29Z"/><path d="M94,28a2.6,2.6,0,0,0,.51,1.38,3,3,0,0,0,2.39.83A5,5,0,0,0,98.55,30a1.57,1.57,0,0,0,1.2-1.56,1.14,1.14,0,0,0-.59-1,6.17,6.17,0,0,0-1.86-.63l-1.46-.32a9,9,0,0,1-3-1,3.29,3.29,0,0,1-1.36-2.91,3.89,3.89,0,0,1,1.33-3,5.66,5.66,0,0,1,3.91-1.2,6,6,0,0,1,3.67,1.13A4,4,0,0,1,102,22.75h-2.7A1.92,1.92,0,0,0,98.25,21a3.67,3.67,0,0,0-1.68-.34,3.09,3.09,0,0,0-1.77.44,1.37,1.37,0,0,0-.67,1.22,1.16,1.16,0,0,0,.66,1.08,8.46,8.46,0,0,0,1.78.55l2.36.56a5.92,5.92,0,0,1,2.33,1,3.28,3.28,0,0,1,1.2,2.74A3.85,3.85,0,0,1,101,31.32a6,6,0,0,1-4,1.22,6.6,6.6,0,0,1-4.18-1.2A4,4,0,0,1,91.31,28Z"/><path d="M104.43,18.75h2.86V27a4.67,4.67,0,0,0,.33,2A2.73,2.73,0,0,0,112,29a4.67,4.67,0,0,0,.33-2V18.75h2.86V27a6.86,6.86,0,0,1-.67,3.34q-1.23,2.19-4.73,2.19t-4.73-2.19a6.86,6.86,0,0,1-.67-3.34Z"/><path d="M126.55,19.09a3.41,3.41,0,0,1,1.25.94,4,4,0,0,1,.68,1.13,3.74,3.74,0,0,1,.25,1.42,4,4,0,0,1-.48,1.88,2.71,2.71,0,0,1-1.6,1.31A2.57,2.57,0,0,1,128,26.83a4.42,4.42,0,0,1,.39,2.11v.9a6.83,6.83,0,0,0,.07,1.25,1.13,1.13,0,0,0,.52.77v.33h-3.1c-.09-.29-.15-.53-.19-.72a6.25,6.25,0,0,1-.11-1.16l0-1.25a2.51,2.51,0,0,0-.45-1.71,2.24,2.24,0,0,0-1.6-.43h-2.74v5.27H118V18.75h6.43A5.83,5.83,0,0,1,126.55,19.09Zm-5.81,2v3.61h3a3.33,3.33,0,0,0,1.35-.21,1.52,1.52,0,0,0,.8-1.52,1.71,1.71,0,0,0-.77-1.64,2.76,2.76,0,0,0-1.3-.24Z"/><path d="M138.41,18.75h3.18l-4.49,8.4v5h-2.81v-5l-4.66-8.4H133l2.79,5.85Z"/><rect class="cls-1" x="10.89" y="25.96" width="4.99" height="4.99" transform="translate(2.73 58.05) rotate(-135)"/><rect class="cls-1" x="15.81" y="21.04" width="4.99" height="4.99" transform="translate(14.6 53.13) rotate(-135)"/><rect class="cls-1" x="20.73" y="16.13" width="4.99" height="4.99" transform="translate(26.48 48.21) rotate(-135)"/><rect class="cls-1" x="5.96" y="21.03" width="4.99" height="4.99" transform="translate(-2.2 46.15) rotate(-135)"/><rect class="cls-1" x="10.88" y="16.12" width="4.99" height="4.99" transform="translate(9.67 41.23) rotate(-135)"/><rect class="cls-1" x="10.88" y="1.44" width="4.99" height="4.99" transform="translate(20.05 16.18) rotate(-135)"/><rect class="cls-1" x="15.8" y="11.2" width="4.99" height="4.99" transform="translate(21.55 36.31) rotate(-135)"/><rect class="cls-1" x="1.03" y="16.1" width="4.99" height="4.99" transform="translate(-7.13 34.25) rotate(-135)"/><rect class="cls-1" x="5.95" y="11.19" width="4.99" height="4.99" transform="translate(4.75 29.33) rotate(-135)"/></g></g></svg>