<svg id="undraw_throw_away_re_x60k" xmlns="http://www.w3.org/2000/svg" width="397.394" height="222.418" viewBox="0 0 397.394 222.418">
  <path id="Path_1" data-name="Path 1" d="M253.536,665.677H192.824s-1.231-18.05,6.05-18.255,6.461,8,15.588-3.282,20.2-10.666,21.639-4-2.769,12,4.923,10.358S259.791,653.165,253.536,665.677Z" transform="translate(-169.904 -444.106)" fill="#e6e6e6"/>
  <path id="Path_2" data-name="Path 2" d="M260.584,665.543l-.205-.008c.478-11.883,2.967-19.518,4.971-23.831a21.625,21.625,0,0,1,4.293-6.6l.136.153a21.485,21.485,0,0,0-4.251,6.546C263.535,646.1,261.06,653.7,260.584,665.543Z" transform="translate(-208.333 -443.967)" fill="#fff"/>
  <path id="Path_3" data-name="Path 3" d="M311.481,688.037l-.2-.057a31.816,31.816,0,0,1,8.01-13.327l.138.152A31.6,31.6,0,0,0,311.481,688.037Z" transform="translate(-237.257 -466.437)" fill="#fff"/>
  <path id="Path_4" data-name="Path 4" d="M207.991,682.114l-.2-.028a22.338,22.338,0,0,0-2.009-13.057,17.977,17.977,0,0,0-3.169-4.627l.142-.148a18.2,18.2,0,0,1,3.213,4.684,22.543,22.543,0,0,1,2.027,13.176Z" transform="translate(-175.508 -460.528)" fill="#fff"/>
  <path id="Path_5" data-name="Path 5" d="M253.1,656.165H177.6l-.017-.256c-.043-.636-1.007-15.643,3.856-21a5.326,5.326,0,0,1,3.892-1.868,11.585,11.585,0,0,1,6.768,2.05c3.028,1.8,5.028,2.983,12.3-6.006,7.879-9.739,16.381-11.834,21.268-10.669a7.586,7.586,0,0,1,5.971,5.838,25.849,25.849,0,0,1,.256,7.546c-.165,2.262-.3,4.049.633,4.859.777.676,2.324.737,4.871.193,5.182-1.105,12.414-.16,16.043,4.53,1.953,2.523,3.491,7.109-.269,14.63Zm-74.984-.549h74.644c2.8-5.685,2.89-10.487.251-13.9-3.33-4.3-10.315-5.434-15.495-4.329-2.768.591-4.417.493-5.346-.316-1.136-.99-1-2.9-.82-5.311a25.454,25.454,0,0,0-.246-7.39,7.055,7.055,0,0,0-5.562-5.42c-4.731-1.129-13,.94-20.714,10.48-7.571,9.358-9.853,8.006-13.009,6.132a11,11,0,0,0-6.473-1.973,4.8,4.8,0,0,0-3.5,1.688c-4.369,4.813-3.836,18.308-3.729,20.337Z" transform="translate(-161.23 -434.319)" fill="#2f2e41"/>
  <path id="Path_8" data-name="Path 8" d="M821.365,572.747H747l-.014-.417-3.551-101.552H824.93Zm-73.53-.864h72.7l3.5-100.242H744.33Z" transform="translate(-482.802 -350.597)" fill="#3f3d56"/>
  <g id="Group_1" data-name="Group 1" transform="translate(276.281 138.997)">
    <rect id="Rectangle_17" data-name="Rectangle 17" width="5.656" height="69.995" fill="#3f3d56"/>
    <rect id="Rectangle_18" data-name="Rectangle 18" width="5.656" height="69.995" transform="translate(22.271)" fill="#3f3d56"/>
    <rect id="Rectangle_19" data-name="Rectangle 19" width="5.656" height="69.995" transform="translate(44.542)" fill="#3f3d56"/>
  </g>
  <path id="Path_730" data-name="Path 730" d="M919.573,446.042l-.365-.231-92.37-58.373,8.012-12.679.365.231,92.369,58.373ZM828.029,387.17,919.3,444.85l7.089-11.218-91.274-57.681Z" transform="translate(-530.191 -296.04)" fill="#3f3d56"/>
  <path id="Path_10" data-name="Path 10" d="M956.411,389.839A16.607,16.607,0,0,0,931.1,406.278l4.4,2.783a13.1,13.1,0,1,1,12.514,7.911l4.4,2.783a16.607,16.607,0,0,0,3.994-29.917Z" transform="translate(-589.331 -303.145)" fill="#3f3d56"/>
  <rect id="Rectangle_21" data-name="Rectangle 21" width="392.513" height="0.864" transform="translate(0 221.554)" fill="#3f3d56"/>
  <g id="Group_6" data-name="Group 6" transform="translate(124.683)">
    <path id="Path_111" data-name="Path 111" d="M524.671,659.979h-6.289l-2.993-24.256h9.284Z" transform="translate(-477.911 -444.317)" fill="#feb8b8"/>
    <path id="Path_112" data-name="Path 112" d="M494.234,695.37H514v-7.636H501.764a7.53,7.53,0,0,0-7.53,7.53h0Z" transform="translate(-465.891 -473.87)" fill="#2f2e41"/>
    <path id="Path_113" data-name="Path 113" d="M531.766,582.837l4.338,4.553,19.627-14.564-6.4-6.72Z" transform="translate(-487.216 -404.762)" fill="#feb8b8"/>
    <path id="Path_114" data-name="Path 114" d="M533.779,608.573l-8.441-8.857-5.529,5.269,13.637,14.309.077-.073a7.531,7.531,0,0,0,.256-10.648Z" transform="translate(-480.422 -423.858)" fill="#2f2e41"/>
    <path id="Path_115" data-name="Path 115" d="M429.373,358.266a5.158,5.158,0,0,1,2.468-7.513l24.69-62.926,9.624,5.762-27.428,60.367a5.186,5.186,0,0,1-9.355,4.31Z" transform="translate(-428.596 -246.645)" fill="#feb8b8"/>
    <path id="Path_116" data-name="Path 116" d="M593.4,372.238a5.158,5.158,0,0,1-4.632-6.412l-36.425-56.942,10.316-4.4,32.747,57.656a5.186,5.186,0,0,1-2.006,10.1Z" transform="translate(-498.91 -256.107)" fill="#feb8b8"/>
    <path id="Path_117" data-name="Path 117" d="M493.853,430.4l6.447,95.824,15.408-1.359,3.172-70.7,8.61,30.362,18.58,1.359-7.354-60.021Z" transform="translate(-465.674 -325.078)" fill="#2f2e41"/>
    <path id="Path_118" data-name="Path 118" d="M549.427,551.224l-2.72,4.532L527.676,568.9l13.595,7.251s26.284-14.5,24.018-19.033Z" transform="translate(-484.892 -396.306)" fill="#2f2e41"/>
    <path id="Path_119" data-name="Path 119" d="M462.607,303.292l5.363-15.113a26.986,26.986,0,0,1,13.961-15.4h0a38.615,38.615,0,0,1,22.663-1.241l1.952.484a37.725,37.725,0,0,1,14.3,6.909c3.305,2.605,6.279,5.9,6.543,9.453a.107.107,0,0,0,.006.022c.915,4.012,1.368,24.858,1.368,24.858h-8.075l1.277,28.1-.1-.2s-46.573,8.814-46.573,4.282v-29l-.955-10.5Z" transform="translate(-447.921 -236.741)" fill="#ccc"/>
    <circle id="Ellipse_12" data-name="Ellipse 12" cx="12.906" cy="12.906" r="12.906" transform="translate(45.251 5.054)" fill="#feb8b8"/>
    <path id="Path_120" data-name="Path 120" d="M548.152,204.629l10.021.4a5.471,5.471,0,0,0,3.6-.864c1.447-1.23,1.2-3.552.43-5.286-2.159-4.828-6.975-6.558-12.263-6.416s-10.83,1.934-13.677,6.391a20.768,20.768,0,0,0-2.545,15.262,16.639,16.639,0,0,1,13.605-9.487Z" transform="translate(-488.061 -192.457)" fill="#2f2e41"/>
  </g>
  <g id="Group_4" data-name="Group 4" transform="translate(207.35 69.544)">
    <path id="Path_81" data-name="Path 81" d="M656.972,422.379,620.7,396.957a1.558,1.558,0,0,1-.381-2.165l28.47-40.621a1.558,1.558,0,0,1,2.165-.381l36.272,25.422a1.558,1.558,0,0,1,.381,2.165L659.138,422A1.558,1.558,0,0,1,656.972,422.379Z" transform="translate(-620.038 -353.509)" fill="#0e65f2"/>
    <path id="Path_82" data-name="Path 82" d="M695.172,424.013,673.888,409.1a2.289,2.289,0,1,1,2.627-3.749L697.8,420.265a2.289,2.289,0,0,1-2.627,3.749Z" transform="translate(-650.081 -382.728)" fill="#fff"/>
    <path id="Path_83" data-name="Path 83" d="M683.86,440.154l-21.284-14.917a2.289,2.289,0,1,1,2.627-3.749l21.284,14.917a2.289,2.289,0,0,1-2.627,3.749Z" transform="translate(-643.653 -391.899)" fill="#fff"/>
    <path id="Path_84" data-name="Path 84" d="M672.426,456.469l-21.284-14.917a2.289,2.289,0,1,1,2.627-3.749l21.284,14.917a2.289,2.289,0,1,1-2.627,3.749Z" transform="translate(-637.157 -401.169)" fill="#fff"/>
    <path id="Path_85" data-name="Path 85" d="M712.192,404.109l-8.244-5.778a2.289,2.289,0,0,1,2.627-3.749l8.244,5.778a2.289,2.289,0,1,1-2.627,3.749Z" transform="translate(-667.161 -376.611)" fill="#fff"/>
  </g>
</svg>
