<svg width="46" height="17" viewBox="0 0 46 17" fill="none" xmlns="http://www.w3.org/2000/svg">
    <g clip-path="url(#clip0)">
        <path d="M4.712 8.577H0.5V15.961H4.712V8.577Z" stroke="#009840" stroke-miterlimit="10"/>
        <path d="M4.60498 9.17899C4.70503 8.66876 4.90929 8.18467 5.20499 7.75699C5.64199 7.20999 8.10498 4.14699 8.37698 2.66999C8.5647 2.02936 8.58364 1.3511 8.43198 0.700994C8.7678 0.550287 9.14457 0.516882 9.50168 0.606115C9.85879 0.695347 10.1755 0.90204 10.401 1.193C11.167 2.232 9.80097 5.45899 9.85397 6.16999C9.84728 6.26768 9.8607 6.36572 9.89334 6.45804C9.92599 6.55036 9.97718 6.63502 10.0438 6.70679C10.1104 6.77856 10.191 6.83592 10.2807 6.87534C10.3703 6.91476 10.4671 6.93542 10.565 6.93601C10.784 6.99101 13.628 6.225 14.941 6.991C15.131 7.07308 15.2958 7.20409 15.4186 7.37067C15.5415 7.53725 15.6179 7.73342 15.6402 7.93918C15.6625 8.14495 15.6297 8.35294 15.5454 8.54194C15.461 8.73093 15.328 8.89417 15.16 9.01499C15.16 9.01499 16.068 9.398 16.013 10.215C15.958 11.032 14.996 11.415 14.996 11.415C15.2836 11.5058 15.5245 11.7051 15.6675 11.9706C15.8105 12.2361 15.8444 12.5469 15.762 12.837C15.596 13.502 14.504 13.767 14.504 13.767C14.6478 13.9183 14.7551 14.1005 14.8176 14.2997C14.8802 14.4988 14.8964 14.7096 14.865 14.916C14.613 15.955 14.176 15.955 13.246 16.01C11.918 16.088 4.71298 15.955 4.71298 15.955L4.60498 9.17899Z"
              stroke="#009840" stroke-linejoin="round"/>
    </g>
    <g clip-path="url(#clip1)">
        <path d="M40.804 7.96799L45.016 7.96799V0.583987L40.804 0.583987V7.96799Z" stroke="#FF0000"
              stroke-miterlimit="10"/>
        <path d="M40.911 7.36599C40.811 7.87622 40.6067 8.36031 40.311 8.78799C39.874 9.33499 37.411 12.398 37.139 13.875C36.9513 14.5156 36.9324 15.1939 37.084 15.844C36.7482 15.9947 36.3714 16.0281 36.0143 15.9389C35.6572 15.8496 35.3405 15.6429 35.115 15.352C34.349 14.313 35.715 11.086 35.662 10.375C35.6687 10.2773 35.6553 10.1793 35.6227 10.0869C35.59 9.99462 35.5388 9.90996 35.4722 9.83819C35.4056 9.76642 35.325 9.70906 35.2353 9.66964C35.1457 9.63022 35.0489 9.60956 34.951 9.60897C34.732 9.55397 31.888 10.32 30.575 9.55398C30.385 9.4719 30.2202 9.34089 30.0974 9.17431C29.9745 9.00774 29.8981 8.81157 29.8758 8.6058C29.8535 8.40003 29.8863 8.19204 29.9706 8.00305C30.055 7.81405 30.188 7.65082 30.356 7.52999C30.356 7.52999 29.448 7.14698 29.503 6.32998C29.558 5.51298 30.52 5.12997 30.52 5.12997C30.2324 5.03919 29.9915 4.83991 29.8485 4.5744C29.7055 4.30889 29.6716 3.99807 29.754 3.70797C29.92 3.04297 31.012 2.77798 31.012 2.77798C30.8682 2.62666 30.7609 2.44447 30.6984 2.24533C30.6358 2.04618 30.6196 1.83536 30.651 1.62899C30.903 0.589993 31.34 0.589968 32.27 0.534968C33.598 0.456968 40.803 0.589992 40.803 0.589992L40.911 7.36599Z"
              stroke="#FF0000" stroke-linejoin="round"/>
    </g>
    <defs>
        <clipPath id="clip0">
            <rect width="16.516" height="16.545" fill="white"/>
        </clipPath>
        <clipPath id="clip1">
            <rect width="16.516" height="16.545" fill="white" transform="translate(29)"/>
        </clipPath>
    </defs>
</svg>
