<svg width="27" height="32" viewBox="0 0 27 32" fill="none" xmlns="http://www.w3.org/2000/svg">
    <path d="M9.85765 28.4647L13.3861 31.9931L16.9146 28.4647L13.3861 24.9362L9.85765 28.4647Z" fill="#231F20"/>
    <path d="M14.7697 23.5447L18.2982 27.0731L21.8266 23.5446L18.2982 20.0162L14.7697 23.5447Z" fill="#231F20"/>
    <path d="M19.6988 18.6176L23.2273 22.146L26.7558 18.6176L23.2273 15.0891L19.6988 18.6176Z" fill="#231F20"/>
    <path d="M4.92759 23.5367L8.45605 27.0652L11.9845 23.5367L8.45605 20.0083L4.92759 23.5367Z" fill="#231F20"/>
    <path d="M9.84678 18.6097L13.3752 22.1381L16.9037 18.6097L13.3752 15.0812L9.84678 18.6097Z" fill="#231F20"/>
    <path d="M9.84642 3.93998L13.3749 7.46844L16.9033 3.93998L13.3749 0.41152L9.84642 3.93998Z" fill="#231F20"/>
    <path d="M14.7688 13.6897L18.2973 17.2181L21.8258 13.6897L18.2973 10.1612L14.7688 13.6897Z" fill="#231F20"/>
    <path d="M-0.0024006 18.6088L3.52606 22.1373L7.05452 18.6088L3.52606 15.0803L-0.0024006 18.6088Z" fill="#231F20"/>
    <path d="M4.92674 13.6817L8.4552 17.2102L11.9837 13.6817L8.4552 10.1533L4.92674 13.6817Z" fill="#231F20"/>
</svg>
